<svg id="Layer_1" data-name="Layer 1" xmlns="http://www.w3.org/2000/svg" viewBox="0 0 438.51969 78.20787"><defs><style>.cls-1{fill:#14e2c9;}.cls-2{fill:#874de2;}.cls-3{fill:#4d5858;}</style></defs><title>DH-landscape</title><path class="cls-1" d="M12.64472,22.43723a4.88931,4.88931,0,1,1-2.97062-4.5098A4.90375,4.90375,0,0,1,12.64472,22.43723Z"/><path class="cls-1" d="M60.68407,39.10394A21.569,21.569,0,0,1,39.11538,60.67262H7.74275a4.902,4.902,0,1,1,0-9.80395H39.11538a11.76474,11.76474,0,1,0,0-23.52947H19.50749a4.902,4.902,0,1,1,0-9.80395H39.11538A21.569,21.569,0,0,1,60.68407,39.10394Z"/><path class="cls-2" d="M75.39,39.10394a36.28031,36.28031,0,0,1-36.27461,36.2746H19.50749a4.902,4.902,0,0,1,0-9.80394H39.11538a26.47066,26.47066,0,0,0,0-52.94132H7.74275a4.902,4.902,0,0,1,0-9.80395H39.11538A36.28031,36.28031,0,0,1,75.39,39.10394Z"/><circle class="cls-2" cx="7.74275" cy="70.47657" r="4.90197"/><path class="cls-3" d="M418.52152,35.4867a12.5338,12.5338,0,0,1,2.6451-2.097,5.21883,5.21883,0,0,1,2.62127-.6434,3.07406,3.07406,0,0,1,2.69277,1.16765,8.10207,8.10207,0,0,1,.78638,4.21784v16.514h8.41187V37.03563q0-11.43822-8.79315-11.43824a9.96079,9.96079,0,0,0-4.76594,1.07232,19.54083,19.54083,0,0,0-4.07488,2.8119l.4051-5.07571V14.56426h-8.41187V54.64575H418.45Zm-13.55908,19.588a16.68083,16.68083,0,0,1-3.24084.286,9.07914,9.07914,0,0,1-7.50633-3.02636,11.91483,11.91483,0,0,1-2.383-7.9591V32.86544h-3.88423V26.62206l4.337-.33361.977-7.554h6.98207v7.554h6.81529v6.577h-6.81529V44.256c0,3.00254,1.2153,4.5038,3.66976,4.5038a7.48271,7.48271,0,0,0,2.66891-.5719l1.33445,6.12422A28.19428,28.19428,0,0,1,404.96244,55.07469Zm-15.96587-.4051a10.223,10.223,0,0,1-4.21784.69106,6.81529,6.81529,0,0,1-6.02892-2.66893,11.36684,11.36684,0,0,1-1.71574-6.86294V14.56426h8.41187v31.622a3.00241,3.00241,0,0,0,.45277,1.73958,1.263,1.263,0,0,0,1.04851.5719h.52425l.50042-.11915Zm-31.69346-6.52934a3.81289,3.81289,0,0,0,2.383.69106,4.76611,4.76611,0,0,0,2.383-.57191,10.81924,10.81924,0,0,0,2.383-1.83487V41.44412a14.58349,14.58349,0,0,0-6.17187,1.83487,3.43148,3.43148,0,0,0-1.71574,2.85955A2.383,2.383,0,0,0,357.30311,48.14025Zm3.78891,6.26719a10.00841,10.00841,0,0,1-4.24168.92936,9.29357,9.29357,0,0,1-3.5268-.6434,7.57791,7.57791,0,0,1-2.64509-1.85871,8.60252,8.60252,0,0,1-2.383-6.07657,7.93532,7.93532,0,0,1,3.78891-7.00593A28.59546,28.59546,0,0,1,364.23752,36.416a3.88423,3.88423,0,0,0-4.55144-4.12251,10.53247,10.53247,0,0,0-3.503.61958,24.16476,24.16476,0,0,0-3.97955,1.954l-3.02635-5.55231a23.16239,23.16239,0,0,1,12.10547-3.71743c7.53018,0,11.27144,4.26552,11.27144,12.82036v16.228h-6.86294l-.57191-2.90722h-.21445a18.58639,18.58639,0,0,1-3.93194,2.66893ZM331.51942,33.3897a7.14879,7.14879,0,0,0-1.90638,4.00338H339.8598c0-3.59828-1.59659-5.38551-4.76593-5.38551A4.98035,4.98035,0,0,0,331.51942,33.3897Zm9.53186,21.08924a17.1096,17.1096,0,0,1-5.24252.85787,15.87045,15.87045,0,0,1-5.67145-1.00084,13.20173,13.20173,0,0,1-4.57529-2.93105,14.55987,14.55987,0,0,1-4.0034-10.93781,16.6808,16.6808,0,0,1,1.09616-6.12422,14.631,14.631,0,0,1,3.074-4.76594,12.72508,12.72508,0,0,1,9.19825-3.95573A11.29524,11.29524,0,0,1,344.03,29.50545,15.03658,15.03658,0,0,1,347.0087,39.228a15.25154,15.25154,0,0,1-.35745,3.71742H329.6607a6.91069,6.91069,0,0,0,2.383,4.52764,7.76846,7.76846,0,0,0,4.90891,1.47744,11.67659,11.67659,0,0,0,6.12422-1.88254l2.78807,5.09954a18.80074,18.80074,0,0,1-4.71827,2.31148ZM301.494,35.41521a11.91514,11.91514,0,0,1,2.62126-2.097,5.26624,5.26624,0,0,1,2.62126-.64339,3.0502,3.0502,0,0,1,2.69275,1.16765,7.81609,7.81609,0,0,1,.8102,4.21784v16.514h8.41187V37.03563c0-7.62548-2.95488-11.43824-8.817-11.43824a10.03239,10.03239,0,0,0-4.76594,1.07232,20.06509,20.06509,0,0,0-4.051,2.8119l.4051-5.07571V14.56426h-8.24506V54.64575h8.41187Zm-38.91384,0a11.91491,11.91491,0,0,1,2.62126-2.097,5.31386,5.31386,0,0,1,2.64509-.64339,3.02636,3.02636,0,0,1,2.66893,1.16765,7.81608,7.81608,0,0,1,1.00084,4.28932v16.514h8.41187V37.03563q0-11.43822-8.817-11.43824a10.15133,10.15133,0,0,0-4.76593,1.12,19.06381,19.06381,0,0,0-4.36083,3.16935h-.2383l-.5719-3.59828h-6.91061v28.3573h8.41187ZM233.38886,46.42453a4.57529,4.57529,0,0,0,7.74464,0,13.58283,13.58283,0,0,0,0-11.91484,4.57528,4.57528,0,0,0-7.74464,0A14.131,14.131,0,0,0,233.38886,46.42453Zm9.05528,7.91144a13.988,13.988,0,0,1-10.38974,0,12.868,12.868,0,0,1-4.38465-2.88338,13.36851,13.36851,0,0,1-3.12169-4.76594,16.91885,16.91885,0,0,1-1.12-6.24338,16.68081,16.68081,0,0,1,1.12-6.21954,13.48716,13.48716,0,0,1,3.12169-4.76593,13.22567,13.22567,0,0,1,4.38465-2.88339,13.48757,13.48757,0,0,1,17.74382,6.99906q.14477.33333.2714.6741a16.68077,16.68077,0,0,1,1.12,6.21954,16.91923,16.91923,0,0,1-1.12,6.24336,13.60667,13.60667,0,0,1-3.074,4.76593,13.32081,13.32081,0,0,1-4.50381,2.85957Zm-22.9718-1.64425a13.13011,13.13011,0,0,1-8.69783,2.69275,16.681,16.681,0,0,1-5.69529-1.07233,19.68362,19.68362,0,0,1-5.05189-2.90722l3.78892-5.26636a15.108,15.108,0,0,0,3.71743,2.383,9.532,9.532,0,0,0,3.59827.7149c2.383,0,3.59828-.8102,3.59828-2.383,0-.8102-.59574-1.54893-1.7634-2.24l-1.90637-.85787a29.45242,29.45242,0,0,1-4.76593-2.00169,8.9361,8.9361,0,0,1-4.17019-4.051,6.6723,6.6723,0,0,1-.69107-3.09787,8.29278,8.29278,0,0,1,.78639-3.59828,7.6492,7.6492,0,0,1,2.19232-2.8119,9.74627,9.74627,0,0,1,3.4553-1.81106,15.51312,15.51312,0,0,1,9.84166.33361,19.70679,19.70679,0,0,1,4.59912,2.62126l-3.76509,5.0519a10.15147,10.15147,0,0,0-6.00507-2.383q-3.217,0-3.217,2.21616,0,1.21533,1.71574,2.07319c.81021.38128,2.097.8817,3.83658,1.54893a16.68032,16.68032,0,0,1,5.21869,2.78807,7.33952,7.33952,0,0,1,2.383,5.71912A7.86379,7.86379,0,0,1,219.47234,52.69172ZM182.77466,65.107A12.72479,12.72479,0,0,1,178.39,65.798a12.46289,12.46289,0,0,1-4.00338-.5719l1.50127-6.41019a5.7904,5.7904,0,0,0,1.88254.35745,4.88507,4.88507,0,0,0,4.9804-3.71742l.4051-1.50126L172.21812,26.28845h8.45953l4.07487,12.10547c.52425,1.76339.90553,3.074,1.14382,3.95573l1.07234,4.12254h.23829c.834-3.59828,1.47744-6.291,1.954-8.07825l3.43147-12.177h8.05443l-9.84166,28.5956a31.86075,31.86075,0,0,1-2.19232,4.76593,12.55836,12.55836,0,0,1-2.50211,3.217,9.86571,9.86571,0,0,1-3.33616,2.26381ZM155.34672,48.18792a3.76508,3.76508,0,0,0,2.383.69106,4.76611,4.76611,0,0,0,2.383-.57191,10.81828,10.81828,0,0,0,2.383-1.83488V41.44412a14.46452,14.46452,0,0,0-6.17188,1.83487,3.4315,3.4315,0,0,0-1.71574,2.85955,2.383,2.383,0,0,0,.73872,2.00171Zm3.76508,6.26719a9.88945,9.88945,0,0,1-4.21785.92936,9.19829,9.19829,0,0,1-3.52679-.6434,7.91116,7.91116,0,0,1-2.66892-1.85871,8.60248,8.60248,0,0,1-2.383-6.07657,7.95911,7.95911,0,0,1,3.81275-7.00593,28.405,28.405,0,0,1,12.15312-3.33615,4.62287,4.62287,0,0,0-1.16765-3.074,4.57535,4.57535,0,0,0-3.2885-1.04851,10.67577,10.67577,0,0,0-3.52678.61957,25.14135,25.14135,0,0,0-3.97956,1.954l-3.02637-5.55231a23.23377,23.23377,0,0,1,12.22462-3.76507q11.24762,0,11.27143,12.82035v16.228h-6.86294l-.57192-2.90722h-.23829a18.58666,18.58666,0,0,1-4.00338,2.669Zm-23.82966-16.228V54.6934h-8.45953V26.28845h6.86294l.57191,4.95657h.21447a11.34285,11.34285,0,0,1,3.59828-4.21784,8.47784,8.47784,0,0,1,7.7923-.85787l-1.35829,7.1489a11.915,11.915,0,0,0-3.09786-.45277,5.5761,5.5761,0,0,0-3.4553,1.263,9.07908,9.07908,0,0,0-2.74042,4.051Zm-31.4075,2.16851c0,5.43316,1.71574,8.12593,5.14721,8.12593a5.07573,5.07573,0,0,0,2.45445-.59576,7.14892,7.14892,0,0,0,2.12084-1.97787V34.29522a6.91068,6.91068,0,0,0-4.76593-1.83488,4.337,4.337,0,0,0-3.62211,2.02552,9.93691,9.93691,0,0,0-1.406,5.86209Zm6.98209,14.01184a8.84081,8.84081,0,0,1-4.00338.977,10.86621,10.86621,0,0,1-4.76593-1.02467,9.86548,9.86548,0,0,1-3.66977-2.97871,16.68077,16.68077,0,0,1-3.24084-10.914,18.68256,18.68256,0,0,1,.977-6.14806,14.77443,14.77443,0,0,1,2.69275-4.76593,11.10458,11.10458,0,0,1,3.74126-2.93106,10.24649,10.24649,0,0,1,4.36082-1.02467,8.9601,8.9601,0,0,1,3.78892.71489,12.60611,12.60611,0,0,1,3.19318,2.26381l-.33362-4.337V14.56426H122.009V54.64575h-6.86294l-.57191-2.78806h-.33362a12.91573,12.91573,0,0,1-3.4553,2.5021Z"/></svg>