<svg xmlns="http://www.w3.org/2000/svg" viewBox="0 0 113 113"><defs><style>.cls-1{fill:#323e48;}.cls-2{fill:#fff;}.cls-3{fill:#ee0f6a;}</style></defs><title>GDm-Health-app-icon</title><g id="Layer_2" data-name="Layer 2"><g id="GDM_logos" data-name="GDM logos"><rect class="cls-1" width="113" height="113" rx="28.75" ry="28.75"/><circle class="cls-2" cx="91.5" cy="68.5" r="5"/><circle class="cls-2" cx="85.5" cy="79.5" r="5"/><path class="cls-2" d="M56.5,98.5a42,42,0,1,1,42-42,5,5,0,0,1-10,0A32,32,0,1,0,73.79,83.43a5,5,0,0,1,5.42,8.41A41.86,41.86,0,0,1,56.5,98.5Z"/><circle class="cls-3" cx="78.5" cy="57.5" r="5"/><path class="cls-3" d="M56.52,83.51a27.13,27.13,0,0,1-9.29-1.65,27,27,0,1,1,32.59-39,5,5,0,1,1-8.64,5,17,17,0,1,0-1,18.63,5,5,0,1,1,8.07,5.9A27,27,0,0,1,56.52,83.51Z"/></g></g></svg>