<svg id="Layer_1" data-name="Layer 1" xmlns="http://www.w3.org/2000/svg" viewBox="0 0 160 160"><defs><style>.cls-1{fill:#fff;}</style></defs><title>GDM_icon-white</title><circle class="cls-1" cx="115" cy="92" r="5"/><circle class="cls-1" cx="109" cy="103" r="5"/><path class="cls-1" d="M80,122a42,42,0,1,1,42-42,5,5,0,0,1-10,0,32,32,0,1,0-14.71,26.93,5,5,0,0,1,5.42,8.41A41.86,41.86,0,0,1,80,122Z"/><circle class="cls-1" cx="102" cy="81" r="5"/><path class="cls-1" d="M80,107a27.13,27.13,0,0,1-9.29-1.65,27,27,0,1,1,32.59-39,5,5,0,1,1-8.64,5,17,17,0,1,0-1,18.63,5,5,0,1,1,8.07,5.9A27,27,0,0,1,80,107Z"/></svg>
