<?xml version="1.0" encoding="UTF-8"?>
<svg width="124px" height="124px" viewBox="0 0 124 124" version="1.1" xmlns="http://www.w3.org/2000/svg" xmlns:xlink="http://www.w3.org/1999/xlink">
    <!-- Generator: Sketch 48 (47235) - http://www.bohemiancoding.com/sketch -->
    <title>gdm_app_icon</title>
    <desc>Created with Sketch.</desc>
    <defs>
        <path d="M31.5442832,124 C14.1228319,124 0,109.877168 0,92.4557168 L0,31.5442832 C0,14.1228319 14.1228319,0 31.5442832,0 L92.4557168,0 C109.877168,0 124,14.1228319 124,31.5442832 L124,92.4557168 C124,109.877168 109.877168,124 92.4557168,124 L31.5442832,124 Z" id="path-1"></path>
        <polygon id="path-3" points="0 46.000219 0 92 92 92 92 46.000219 92 0.000438095238 0 0.000438095238"></polygon>
    </defs>
    <g id="login" stroke="none" stroke-width="1" fill="none" fill-rule="evenodd" transform="translate(-510.000000, -62.000000)">
        <g id="content" transform="translate(425.000000, 62.000000)">
            <g id="gdm_app_icon" transform="translate(85.000000, 0.000000)">
                <g id="background-colour">
                    <mask id="mask-2" fill="white">
                        <use xlink:href="#path-1"></use>
                    </mask>
                    <use id="Mask" fill="#030100" xlink:href="#path-1"></use>
                    <g id="colour/grey/06" fill="#1A2730">
                        <rect id="colour/blue" x="0" y="0" width="124" height="124"></rect>
                    </g>
                </g>
                <g id="logo/gdm/1/main-logo1" transform="translate(16.000000, 16.000000)">
                    <g id="main-logo">
                        <path d="M78.8571429,59.1432952 C78.8571429,62.1661524 81.3082857,64.6194857 84.3333333,64.6194857 C87.358381,64.6194857 89.8095238,62.1661524 89.8095238,59.1432952 C89.8095238,56.1182476 87.358381,53.6671048 84.3333333,53.6671048 C81.3082857,53.6671048 78.8571429,56.1182476 78.8571429,59.1432952" id="Fill-1" fill="#FFFFFF"></path>
                        <path d="M72.2857143,71.1909143 C72.2857143,74.2137714 74.7368571,76.6671048 77.7619048,76.6671048 C80.7869524,76.6671048 83.2380952,74.2137714 83.2380952,71.1909143 C83.2380952,68.1658667 80.7869524,65.7147238 77.7619048,65.7147238 C74.7368571,65.7147238 72.2857143,68.1658667 72.2857143,71.1909143" id="Fill-3" fill="#FFFFFF"></path>
                        <g id="Group-7">
                            <mask id="mask-4" fill="white">
                                <use xlink:href="#path-3"></use>
                            </mask>
                            <g id="Clip-6"></g>
                            <path d="M46,92.0004381 C20.6364762,92.0004381 0,71.3639619 0,46.0004381 C0,20.6347238 20.6364762,0.000438095238 46,0.000438095238 C71.3635238,0.000438095238 92,20.6347238 92,46.0004381 C92,49.0232952 89.5488571,51.4766286 86.5238095,51.4766286 C83.4987619,51.4766286 81.047619,49.0232952 81.047619,46.0004381 C81.047619,26.6738667 65.324381,10.952819 46,10.952819 C26.675619,10.952819 10.952381,26.6738667 10.952381,46.0004381 C10.952381,65.324819 26.675619,81.0480571 46,81.0480571 C52.7488571,81.0480571 59.2961905,79.1270095 64.9410476,75.4952 C67.486381,73.8567238 70.8728571,74.5927238 72.5113333,77.1336762 C74.147619,79.6790095 73.4138095,83.0654857 70.8706667,84.7039619 C63.4537143,89.4770095 54.8539048,92.0004381 46,92.0004381" id="Fill-5" fill="#FFFFFF" mask="url(#mask-4)"></path>
                        </g>
                        <path d="M63.8747238,40.6580857 C64.9086286,43.4991333 68.0519619,44.9645619 70.8930095,43.9306571 C73.7340571,42.8967524 75.1994857,39.753419 74.165581,36.9123714 C73.1316762,34.0691333 69.9905333,32.6037048 67.1472952,33.6376095 C64.3062476,34.6737048 62.840819,37.8148476 63.8747238,40.6580857" id="Fill-8" fill="#EE0F6A"></path>
                        <path d="M56.1384,73.7932 C52.9205905,74.9651048 49.4903048,75.5718667 45.9636381,75.5696762 C38.064781,75.5565333 30.6434476,72.4701524 25.0643048,66.8778667 C19.4873524,61.285581 16.4206857,53.8554857 16.4316381,45.9566286 C16.4425905,38.0577714 19.5289714,30.6364381 25.1212571,25.0572952 C36.0057333,14.2034857 53.1089714,13.4280571 64.9068762,23.2545333 C67.2309714,25.1909143 67.5464,28.6431048 65.610019,30.9672 C63.678019,33.2912952 60.2236381,33.6067238 57.8995429,31.6703429 C50.476019,25.4866286 39.7098286,25.9794857 32.8558286,32.8137714 C29.3335429,36.3251048 27.3905905,40.9973905 27.3862095,45.9719619 C27.3774476,50.9443429 29.3072571,55.6232 32.8185905,59.1454857 C36.3321143,62.665581 41.0044,64.6085333 45.9789714,64.6151048 C50.9513524,64.6216762 55.6302095,62.6918667 59.1503048,59.1805333 C61.3802095,56.9572 63.0164952,54.1993905 63.8861143,51.202819 C64.7272571,48.2960571 67.7654476,46.6247238 70.670019,47.4658667 C73.5745905,48.3070095 75.2459238,51.3452 74.404781,54.2497714 C73.0225905,59.022819 70.4224952,63.4081524 66.8848762,66.934819 C63.7897333,70.0233905 60.1294476,72.3409143 56.1384,73.7932" id="Fill-10" fill="#EE0F6A"></path>
                    </g>
                </g>
            </g>
        </g>
    </g>
</svg>