<?xml version="1.0" encoding="UTF-8"?>
<svg width="54px" height="54px" viewBox="0 0 54 54" version="1.1" xmlns="http://www.w3.org/2000/svg" xmlns:xlink="http://www.w3.org/1999/xlink">
    <!-- Generator: Sketch 48 (47235) - http://www.bohemiancoding.com/sketch -->
    <title>logo/gdm/00/main-logo00</title>
    <desc>Created with Sketch.</desc>
    <defs>
        <polygon id="path-1" points="0 27.0001286 0 54 54 54 54 27.0001286 54 0.000257142857 0 0.000257142857"></polygon>
    </defs>
    <g id="Drayson-Health" stroke="none" stroke-width="1" fill="none" fill-rule="evenodd">
        <g id="logo/gdm/00/main-logo00">
            <g id="main-logo">
                <path d="M46.2857143,34.7145429 C46.2857143,36.4888286 47.7244286,37.9288286 49.5,37.9288286 C51.2755714,37.9288286 52.7142857,36.4888286 52.7142857,34.7145429 C52.7142857,32.9389714 51.2755714,31.5002571 49.5,31.5002571 C47.7244286,31.5002571 46.2857143,32.9389714 46.2857143,34.7145429" id="Fill-1" fill="#FFFFFF"></path>
                <path d="M42.4285714,41.7859714 C42.4285714,43.5602571 43.8672857,45.0002571 45.6428571,45.0002571 C47.4184286,45.0002571 48.8571429,43.5602571 48.8571429,41.7859714 C48.8571429,40.0104 47.4184286,38.5716857 45.6428571,38.5716857 C43.8672857,38.5716857 42.4285714,40.0104 42.4285714,41.7859714" id="Fill-3" fill="#FFFFFF"></path>
                <g id="Group-7">
                    <mask id="mask-2" fill="white">
                        <use xlink:href="#path-1"></use>
                    </mask>
                    <g id="Clip-6"></g>
                    <path d="M27,54.0002571 C12.1127143,54.0002571 0,41.8875429 0,27.0002571 C0,12.1116857 12.1127143,0.000257142857 27,0.000257142857 C41.8872857,0.000257142857 54,12.1116857 54,27.0002571 C54,28.7745429 52.5612857,30.2145429 50.7857143,30.2145429 C49.0101429,30.2145429 47.5714286,28.7745429 47.5714286,27.0002571 C47.5714286,15.6564 38.3425714,6.42882857 27,6.42882857 C15.6574286,6.42882857 6.42857143,15.6564 6.42857143,27.0002571 C6.42857143,38.3428286 15.6574286,47.5716857 27,47.5716857 C30.9612857,47.5716857 34.8042857,46.4441143 38.1175714,44.3124 C39.6115714,43.3506857 41.5992857,43.7826857 42.561,45.2741143 C43.5214286,46.7681143 43.0907143,48.7558286 41.598,49.7175429 C37.2445714,52.5191143 32.1968571,54.0002571 27,54.0002571" id="Fill-5" fill="#FFFFFF" mask="url(#mask-2)"></path>
                </g>
                <path d="M37.4916857,23.8645286 C38.0985429,25.5321 39.9435429,26.3922429 41.6111143,25.7853857 C43.2786857,25.1785286 44.1388286,23.3335286 43.5319714,21.6659571 C42.9251143,19.9971 41.0814,19.1369571 39.4125429,19.7438143 C37.7449714,20.3519571 36.8848286,22.1956714 37.4916857,23.8645286" id="Fill-8" fill="#FFFFFF" opacity="0.5" style="mix-blend-mode: overlay;"></path>
                <path d="M32.9508,43.3134 C31.0620857,44.0012571 29.0486571,44.3574 26.9786571,44.3561143 C22.3423714,44.3484 17.9863714,42.5368286 14.7116571,39.2544 C11.4382286,35.9719714 9.63822857,31.6108286 9.64465714,26.9745429 C9.65108571,22.3382571 11.4626571,17.9822571 14.7450857,14.7075429 C21.1338,8.33682857 31.1726571,7.88168571 38.0975143,13.6494 C39.4616571,14.7859714 39.6468,16.8122571 38.5102286,18.1764 C37.3762286,19.5405429 35.3486571,19.7256857 33.9845143,18.5891143 C29.6272286,14.9595429 23.3079429,15.2488286 19.2849429,19.2602571 C17.2175143,21.3212571 16.0770857,24.0636857 16.0745143,26.9835429 C16.0693714,29.9021143 17.2020857,32.6484 19.2630857,34.7158286 C21.3253714,36.7819714 24.0678,37.9224 26.9876571,37.9262571 C29.9062286,37.9301143 32.6525143,36.7974 34.7186571,34.7364 C36.0275143,33.4314 36.9879429,31.8126857 37.4983714,30.0538286 C37.9920857,28.3476857 39.7753714,27.3666857 41.4802286,27.8604 C43.1850857,28.3541143 44.1660857,30.1374 43.6723714,31.8422571 C42.8610857,34.6438286 41.3349429,37.2178286 39.2585143,39.2878286 C37.4418,41.1006857 35.2933714,42.4609714 32.9508,43.3134" id="Fill-10" fill="#FFFFFF" opacity="0.5" style="mix-blend-mode: overlay;"></path>
            </g>
        </g>
    </g>
</svg>
