<?xml version="1.0" encoding="UTF-8"?>
<svg width="250px" height="344px" viewBox="0 0 250 344" version="1.1" xmlns="http://www.w3.org/2000/svg" xmlns:xlink="http://www.w3.org/1999/xlink">
    <!-- Generator: Sketch 48.2 (47327) - http://www.bohemiancoding.com/sketch -->
    <title>illustration/404</title>
    <desc>Created with Sketch.</desc>
    <defs></defs>
    <g id="Page-1" stroke="none" stroke-width="1" fill="none" fill-rule="evenodd">
        <g id="illustration/404">
            <g id="illustration/element/circles" transform="translate(0.000000, 93.000000)" fill="#EFF0F0">
                <g id="-outer-rings" transform="translate(0.000000, 0.008764)">
                    <g id="Group">
                        <path d="M10.5333818,72.7285132 C11.8912144,70.2967707 14.9636393,69.4269881 17.3949698,70.7850509 C19.8263002,72.1436502 20.6964719,75.2165958 19.3381028,77.6483384 C17.9797337,80.0800809 14.9078453,80.9498635 12.4765148,79.5918008 C10.0451844,78.2332014 9.17501269,75.1602558 10.5333818,72.7285132" id="dot"></path>
                        <path d="M202.533382,171.728513 C203.891214,169.296771 206.963639,168.426988 209.39497,169.785051 C211.8263,171.14365 212.696472,174.216596 211.338103,176.648338 C209.979734,179.080081 206.907845,179.949864 204.476515,178.591801 C202.045184,177.233201 201.175013,174.160256 202.533382,171.728513" id="dot"></path>
                        <path d="M99.4331414,246.879184 C66.818871,240.119455 38.7882916,221.061504 20.5055663,193.215583 C2.22230452,165.369663 -4.12426201,132.069492 2.63485816,99.4491571 C2.99537319,97.7085187 4.69655344,96.5892303 6.44011567,96.950343 C8.18045902,97.3109192 9.29955773,99.0150706 8.93850623,100.756246 C2.52863499,131.691745 8.54741181,163.272741 25.8870041,189.68065 C43.2255234,216.089095 69.8092144,234.16351 100.740008,240.574467 C108.808678,242.246961 116.924558,243.073281 124.978206,243.073281 C147.795802,243.074355 170.133249,236.441793 189.649343,223.623633 C216.052777,206.282175 234.124665,179.693979 240.534536,148.757942 C246.943871,117.821906 240.925631,86.2414467 223.586038,59.8330015 C206.246983,33.4245563 179.663828,15.350678 148.733034,8.93972036 C117.802777,2.52929927 86.2276693,8.54855965 59.8226264,25.8905543 C47.2099655,34.17522 36.4433346,44.6152939 27.8236994,56.9199542 C26.6278839,58.6267885 25.4647938,60.3845971 24.3671543,62.1461618 C23.4267037,63.6550011 21.4406522,64.1159162 19.9326049,63.174233 C18.4234848,62.2330864 17.9637208,60.2477714 18.9047079,58.738932 C20.0635062,56.8807845 21.2899011,55.0258564 22.5511672,53.2256587 C31.640223,40.2497473 42.9916178,29.2419806 56.2888281,20.5082044 C84.1305663,2.22291687 117.426167,-4.12472534 150.039365,2.63500387 C182.653635,9.39419652 210.684214,28.4526837 228.967476,56.2986043 C247.250738,84.1445249 253.597305,117.444159 246.838184,150.064494 C240.079064,182.684292 221.024343,210.719623 193.183141,229.005447 C172.606425,242.520613 149.049021,249.513751 124.991081,249.514287 C116.497519,249.514824 107.943335,248.642895 99.4331414,246.879184 Z" id="outer-ring"></path>
                        <path d="M124.802521,223.802156 C113.506384,223.802156 102.176448,221.850645 91.2274142,217.927234 C39.6571352,199.446634 12.7338519,142.449851 31.2113197,90.8713677 C49.6882511,39.2928846 106.676985,12.365038 158.245655,30.8451011 C209.815397,49.3251641 236.738144,106.322484 218.261749,157.900967 C217.661964,159.575071 215.817006,160.444853 214.145869,159.846039 C212.472049,159.245616 211.601878,157.403029 212.201127,155.729462 C229.480633,107.492747 204.301985,54.1897223 156.074517,36.9067506 C132.711856,28.5340871 107.488144,29.7622995 85.0487661,40.3654912 C62.6099249,50.9686829 45.6421137,69.6762523 37.2719421,93.042873 C19.9924356,141.279052 45.1700107,194.582612 93.3985515,211.865584 C116.761212,220.237711 141.985998,219.008426 164.423766,208.406307 C175.144796,203.340534 184.6625,196.396761 192.714002,187.766543 C193.827736,186.572671 194.925376,185.332118 195.975268,184.078686 C197.117972,182.716868 199.148015,182.538726 200.510139,183.679477 C201.872264,184.821838 202.050912,186.852225 200.909281,188.215117 C199.786427,189.555473 198.612607,190.881878 197.420547,192.159455 C188.811105,201.38795 178.634603,208.812492 167.173766,214.227572 C153.696298,220.596141 139.27838,223.802156 124.802521,223.802156" id="inner-ring"></path>
                    </g>
                </g>
            </g>
            <g id="Group" transform="translate(2.000000, 17.000000)">
                <path d="M28.6556,211.2516 L38.7836,211.2516 C40.0926,211.2516 41.1536,210.1906 41.1536,208.8816 L41.1536,200.2766 C41.1536,198.6526 41.1776,196.8486 41.2296,194.8666 C41.2796,192.8856 41.3556,190.8796 41.4586,188.8466 C41.5576,186.8146 41.6606,184.8066 41.7626,182.8246 C41.8636,180.8436 41.9656,179.0416 42.0676,177.4146 L41.4586,177.4146 C40.2396,180.3626 38.9676,183.2586 37.6476,186.1026 C36.3256,188.9486 34.9546,191.8446 33.5326,194.7906 L26.5676,207.7606 C25.7186,209.3396 26.8636,211.2516 28.6556,211.2516 M41.1536,250.3406 L41.1536,233.4376 C41.1536,232.1286 40.0926,231.0666 38.7836,231.0666 L2.3706,231.0666 C1.0606,231.0666 0.0006,230.0056 0.0006,228.6966 L0.0006,213.4146 C0.0006,212.9956 0.1106,212.5856 0.3206,212.2246 L32.2376,157.2556 C32.6626,156.5246 33.4426,156.0756 34.2876,156.0756 L63.1716,156.0756 C64.4796,156.0756 65.5416,157.1376 65.5416,158.4456 L65.5416,208.8816 C65.5416,210.1906 66.6026,211.2516 67.9116,211.2516 L73.5356,211.2516 C74.8436,211.2516 75.9056,212.3136 75.9056,213.6226 L75.9056,228.6966 C75.9056,230.0056 74.8436,231.0666 73.5356,231.0666 L67.9116,231.0666 C66.6026,231.0666 65.5416,232.1286 65.5416,233.4376 L65.5416,250.3406 C65.5416,251.6486 64.4796,252.7106 63.1716,252.7106 L43.5236,252.7106 C42.2156,252.7106 41.1536,251.6486 41.1536,250.3406" id="Fill-1" fill="#FFFFFF"></path>
                <path d="M120.4124,234.4205 C121.9354,234.4205 123.3844,234.0385 124.7564,233.2765 C126.1284,232.5145 127.3204,231.0175 128.3384,228.7805 C129.3524,226.5465 130.1664,223.4455 130.7764,219.4825 C131.3874,215.5205 131.6914,210.3375 131.6914,203.9355 C131.6914,197.5345 131.3874,192.4035 130.7764,188.5415 C130.1664,184.6815 129.3524,181.6825 128.3384,179.5485 C127.3204,177.4145 126.1284,176.0195 124.7564,175.3575 C123.3844,174.6965 121.9354,174.3655 120.4124,174.3655 C118.8884,174.3655 117.4394,174.6965 116.0674,175.3575 C114.6954,176.0195 113.5004,177.4145 112.4854,179.5485 C111.4694,181.6825 110.6574,184.6815 110.0474,188.5415 C109.4374,192.4035 109.1324,197.5345 109.1324,203.9355 C109.1324,210.3375 109.4374,215.5205 110.0474,219.4825 C110.6574,223.4455 111.4694,226.5465 112.4854,228.7805 C113.5004,231.0175 114.6954,232.5145 116.0674,233.2765 C117.4394,234.0385 118.8884,234.4205 120.4124,234.4205 M120.4124,254.5395 C115.0244,254.5395 110.1464,253.4465 105.7794,251.2625 C101.4094,249.0785 97.6254,245.8525 94.4244,241.5835 C91.2244,237.3165 88.7584,232.0335 87.0314,225.7325 C85.3034,219.4325 84.4404,212.1665 84.4404,203.9355 C84.4404,195.7045 85.3034,188.4645 87.0314,182.2155 C88.7584,175.9665 91.2244,170.7835 94.4244,166.6685 C97.6254,162.5535 101.4094,159.4545 105.7794,157.3715 C110.1464,155.2895 115.0244,154.2465 120.4124,154.2465 C125.6944,154.2465 130.5484,155.2895 134.9684,157.3715 C139.3884,159.4545 143.1994,162.5795 146.3994,166.7445 C149.6004,170.9125 152.0634,176.0955 153.7924,182.2915 C155.5184,188.4905 156.3844,195.7045 156.3844,203.9355 C156.3844,212.1665 155.5184,219.4325 153.7924,225.7325 C152.0634,232.0335 149.6004,237.3165 146.3994,241.5835 C143.1994,245.8525 139.3884,249.0785 134.9684,251.2625 C130.5484,253.4465 125.6944,254.5395 120.4124,254.5395" id="Fill-3" fill="#FFFFFF"></path>
                <path d="M193.2689,211.2516 L203.3969,211.2516 C204.7059,211.2516 205.7669,210.1906 205.7669,208.8816 L205.7669,200.2766 C205.7669,198.6526 205.7899,196.8486 205.8429,194.8666 C205.8929,192.8856 205.9689,190.8796 206.0719,188.8466 C206.1709,186.8146 206.2739,184.8066 206.3759,182.8246 C206.4769,180.8436 206.5789,179.0416 206.6809,177.4146 L206.0719,177.4146 C204.8519,180.3626 203.5809,183.2586 202.2599,186.1026 C200.9389,188.9486 199.5679,191.8446 198.1459,194.7906 L191.1799,207.7606 C190.3319,209.3396 191.4759,211.2516 193.2689,211.2516 M236.1549,231.0666 L232.5249,231.0666 C231.2149,231.0666 230.1549,232.1286 230.1549,233.4376 L230.1549,250.3406 C230.1549,251.6486 229.0929,252.7106 227.7839,252.7106 L208.1369,252.7106 C206.8289,252.7106 205.7669,251.6486 205.7669,250.3406 L205.7669,233.4376 C205.7669,232.1286 204.7059,231.0666 203.3969,231.0666 L166.9839,231.0666 C165.6739,231.0666 164.6129,230.0056 164.6129,228.6966 L164.6129,213.4146 C164.6129,212.9956 164.7239,212.5856 164.9329,212.2246 L196.8509,157.2556 C197.2749,156.5246 198.0559,156.0756 198.9009,156.0756 L227.7839,156.0756 C229.0929,156.0756 230.1549,157.1376 230.1549,158.4456 L230.1549,208.8816 C230.1549,210.1906 231.2149,211.2516 232.5249,211.2516 L241.3089,211.2516 C242.6179,211.2516 243.6789,212.3136 243.6789,213.6226 L243.6789,221.4016" id="Fill-5" fill="#FFFFFF"></path>
                <path d="M34.9769,203.3502 L45.1049,203.3502 C46.4139,203.3502 47.4749,202.2892 47.4749,200.9802 L47.4749,192.3752 C47.4749,190.7512 47.4979,188.9472 47.5509,186.9652 C47.6009,184.9842 47.6769,182.9792 47.7799,180.9452 C47.8789,178.9132 47.9819,176.9052 48.0839,174.9232 C48.1849,172.9422 48.2869,171.1402 48.3889,169.5132 L47.7799,169.5132 C46.5609,172.4612 45.2889,175.3572 43.9689,178.2012 C42.6469,181.0472 41.2759,183.9432 39.8539,186.8892 L32.8889,199.8592 C32.0399,201.4382 33.1849,203.3502 34.9769,203.3502 M47.4749,242.4392 L47.4749,225.5362 C47.4749,224.2272 46.4139,223.1652 45.1049,223.1652 L8.6919,223.1652 C7.3819,223.1652 6.3209,222.1042 6.3209,220.7952 L6.3209,205.5132 C6.3209,205.0942 6.4319,204.6842 6.6419,204.3232 L38.5589,149.3542 C38.9829,148.6232 39.7639,148.1742 40.6089,148.1742 L69.4919,148.1742 C70.8009,148.1742 71.8629,149.2362 71.8629,150.5442 L71.8629,200.9802 C71.8629,202.2892 72.9229,203.3502 74.2329,203.3502 L79.8559,203.3502 C81.1649,203.3502 82.2269,204.4122 82.2269,205.7212 L82.2269,220.7952 C82.2269,222.1042 81.1649,223.1652 79.8559,223.1652 L74.2329,223.1652 C72.9229,223.1652 71.8629,224.2272 71.8629,225.5362 L71.8629,242.4392 C71.8629,243.7472 70.8009,244.8092 69.4919,244.8092 L49.8449,244.8092 C48.5369,244.8092 47.4749,243.7472 47.4749,242.4392" id="Fill-7" fill="#E6EBEB"></path>
                <path d="M126.7327,226.5192 C128.2567,226.5192 129.7057,226.1382 131.0777,225.3752 C132.4497,224.6132 133.6417,223.1162 134.6597,220.8792 C135.6737,218.6452 136.4877,215.5442 137.0977,211.5812 C137.7077,207.6192 138.0117,202.4362 138.0117,196.0342 C138.0117,189.6332 137.7077,184.5022 137.0977,180.6402 C136.4877,176.7802 135.6737,173.7812 134.6597,171.6472 C133.6417,169.5132 132.4497,168.1182 131.0777,167.4562 C129.7057,166.7952 128.2567,166.4642 126.7327,166.4642 C125.2097,166.4642 123.7607,166.7952 122.3887,167.4562 C121.0167,168.1182 119.8217,169.5132 118.8067,171.6472 C117.7907,173.7812 116.9787,176.7802 116.3687,180.6402 C115.7577,184.5022 115.4537,189.6332 115.4537,196.0342 C115.4537,202.4362 115.7577,207.6192 116.3687,211.5812 C116.9787,215.5442 117.7907,218.6452 118.8067,220.8792 C119.8217,223.1162 121.0167,224.6132 122.3887,225.3752 C123.7607,226.1382 125.2097,226.5192 126.7327,226.5192 M126.7327,246.6382 C121.3457,246.6382 116.4677,245.5452 112.0997,243.3612 C107.7307,241.1772 103.9457,237.9512 100.7457,233.6822 C97.5447,229.4152 95.0797,224.1322 93.3527,217.8312 C91.6247,211.5312 90.7607,204.2652 90.7607,196.0342 C90.7607,187.8032 91.6247,180.5632 93.3527,174.3142 C95.0797,168.0652 97.5447,162.8822 100.7457,158.7672 C103.9457,154.6522 107.7307,151.5532 112.0997,149.4702 C116.4677,147.3882 121.3457,146.3452 126.7327,146.3452 C132.0157,146.3452 136.8687,147.3882 141.2897,149.4702 C145.7097,151.5532 149.5197,154.6782 152.7207,158.8432 C155.9207,163.0112 158.3837,168.1942 160.1137,174.3902 C161.8397,180.5892 162.7047,187.8032 162.7047,196.0342 C162.7047,204.2652 161.8397,211.5312 160.1137,217.8312 C158.3837,224.1322 155.9207,229.4152 152.7207,233.6822 C149.5197,237.9512 145.7097,241.1772 141.2897,243.3612 C136.8687,245.5452 132.0157,246.6382 126.7327,246.6382" id="Fill-9" fill="#E6EBEB"></path>
                <path d="M199.5901,203.3502 L209.7171,203.3502 C211.0271,203.3502 212.0881,202.2892 212.0881,200.9802 L212.0881,192.3752 C212.0881,190.7512 212.1111,188.9472 212.1641,186.9652 C212.2131,184.9842 212.2901,182.9792 212.3931,180.9452 C212.4921,178.9132 212.5951,176.9052 212.6971,174.9232 C212.7971,172.9422 212.9001,171.1402 213.0021,169.5132 L212.3931,169.5132 C211.1731,172.4612 209.9011,175.3572 208.5811,178.2012 C207.2601,181.0472 205.8891,183.9432 204.4661,186.8892 L197.5011,199.8592 C196.6531,201.4382 197.7971,203.3502 199.5901,203.3502 M243.4761,223.1652 L238.8461,223.1652 C237.5361,223.1652 236.4751,224.2272 236.4751,225.5362 L236.4751,242.4392 C236.4751,243.7472 235.4141,244.8092 234.1051,244.8092 L214.4581,244.8092 C213.1491,244.8092 212.0881,243.7472 212.0881,242.4392 L212.0881,225.5362 C212.0881,224.2272 211.0271,223.1652 209.7171,223.1652 L173.3041,223.1652 C171.9951,223.1652 170.9341,222.1042 170.9341,220.7952 L170.9341,205.5132 C170.9341,205.0942 171.0441,204.6842 171.2541,204.3232 L203.1721,149.3542 C203.5961,148.6232 204.3771,148.1742 205.2221,148.1742 L234.1051,148.1742 C235.4141,148.1742 236.4751,149.2362 236.4751,150.5442 L236.4751,200.9802 C236.4751,202.2892 237.5361,203.3502 238.8461,203.3502 L247.6291,203.3502 C248.9391,203.3502 250.0001,204.4122 250.0001,205.7212 L250.0001,214.5002" id="Fill-11" fill="#E6EBEB"></path>
                <path d="M176.9222,62.6432 L150.1162,109.0722 C149.4012,110.3102 148.0812,111.0722 146.6522,111.0722 L93.0412,111.0722 C91.6112,111.0722 90.2912,110.3102 89.5762,109.0722 L62.7712,62.6432 C62.0572,61.4062 62.0572,59.8802 62.7712,58.6432 L89.5762,12.2142 C90.2912,10.9762 91.6112,10.2142 93.0412,10.2142 L146.6522,10.2142 C148.0812,10.2142 149.4012,10.9762 150.1162,12.2142 L176.9222,58.6432 C177.6372,59.8802 177.6372,61.4062 176.9222,62.6432 M187.5622,58.6432 L155.4372,2.9992 C154.7222,1.7622 153.4012,0.9992 151.9722,0.9992 L87.7212,0.9992 C86.2922,0.9992 84.9722,1.7622 84.2572,2.9992 L52.1312,58.6432 C51.4172,59.8802 51.4172,61.4062 52.1312,62.6432 L84.2572,118.2872 C84.9722,119.5242 86.2922,120.2872 87.7212,120.2872 L151.9722,120.2872 C153.4012,120.2872 154.7222,119.5242 155.4372,118.2872 L187.5622,62.6432 C188.2762,61.4062 188.2762,59.8802 187.5622,58.6432" id="Fill-14" fill="#FFFFFF"></path>
                <path d="M151.972,1.0006 L87.721,1.0006 C86.292,1.0006 84.972,1.7626 84.257,3.0006 L52.131,58.6436 C51.417,59.8806 51.417,61.4056 52.131,62.6436 L84.257,118.2866 C84.972,119.5236 86.292,120.2866 87.721,120.2866 L151.972,120.2866 C153.402,120.2866 154.722,119.5236 155.437,118.2866 L187.562,62.6436 C188.277,61.4056 188.277,59.8806 187.562,58.6436 L155.437,3.0006 C154.722,1.7626 153.402,1.0006 151.972,1.0006 Z" id="Stroke-16" stroke="#425765" stroke-width="4" stroke-linecap="round" stroke-linejoin="round" stroke-dasharray="1,1"></path>
                <path d="M149.2122,4.9645 L96.2852,4.9645 C94.8562,4.9645 93.5352,5.7265 92.8212,6.9645 L66.3582,52.8005 C65.6432,54.0375 65.6432,55.5635 66.3582,56.8005 L92.8212,102.6375 C93.5352,103.8745 94.8562,104.6375 96.2852,104.6375 L149.2122,104.6375 C150.6422,104.6375 151.9622,103.8745 152.6772,102.6375 L179.1402,56.8005 C179.8552,55.5635 179.8552,54.0375 179.1402,52.8005 L152.6772,6.9645 C151.9622,5.7265 150.6422,4.9645 149.2122,4.9645" id="Fill-18" fill="#9468F8"></path>
                <path d="M146.6526,10.2145 L93.0416,10.2145 C91.6116,10.2145 90.2916,10.9775 89.5766,12.2145 L62.7706,58.6435 C62.0566,59.8805 62.0566,61.4055 62.7706,62.6435 L89.5766,109.0715 C90.2916,110.3105 91.6116,111.0715 93.0416,111.0715 L146.6526,111.0715 C148.0816,111.0715 149.4016,110.3105 150.1166,109.0715 L176.9226,62.6435 C177.6366,61.4055 177.6366,59.8805 176.9226,58.6435 L150.1166,12.2145 C149.4016,10.9775 148.0816,10.2145 146.6526,10.2145 Z" id="Stroke-20" stroke="#425765" stroke-width="2.5" stroke-linecap="round" stroke-linejoin="round" stroke-dasharray="1,1"></path>
                <polygon id="Fill-22" fill="#FFFFFF" points="116.473 154.076 123.749 154.076 123.749 120.287 116.473 120.287"></polygon>
                <polygon id="Stroke-24" stroke="#425765" stroke-width="2.5" stroke-linecap="round" stroke-linejoin="round" stroke-dasharray="1,1" points="116.473 154.076 123.749 154.076 123.749 120.287 116.473 120.287"></polygon>
                <path d="M135.9534,63.9616 L135.3614,64.8936 C135.0084,65.4496 134.2924,65.6366 133.7064,65.3366 C131.4204,64.1646 128.8224,63.7166 126.2754,64.0696 C121.9464,64.6706 118.2164,67.5406 116.4874,71.5076 C116.2244,72.1116 115.5534,72.4236 114.9274,72.2186 L113.8774,71.8746 C113.1754,71.6456 112.8054,70.8626 113.0944,70.1836 C115.3004,65.0016 120.1444,61.2456 125.7744,60.4626 C129.1074,60.0016 132.5044,60.6006 135.4804,62.1546 C136.1364,62.4976 136.3494,63.3376 135.9534,63.9616 M108.6214,52.6926 C106.6094,52.6926 104.9794,51.0636 104.9794,49.0526 C104.9794,47.0416 106.6094,45.4116 108.6214,45.4116 C110.6314,45.4116 112.2614,47.0416 112.2614,49.0526 C112.2614,51.0636 110.6314,52.6926 108.6214,52.6926 M131.1484,45.4116 C133.1604,45.4116 134.7904,47.0416 134.7904,49.0526 C134.7904,51.0636 133.1604,52.6926 131.1484,52.6926 C129.1384,52.6926 127.5084,51.0636 127.5084,49.0526 C127.5084,47.0416 129.1384,45.4116 131.1484,45.4116 M146.9464,43.3866 C145.2924,39.9396 142.9994,36.8536 140.2204,34.2856 C134.8624,29.3296 127.7024,26.2976 119.8474,26.2976 C103.2844,26.2976 89.8104,39.7726 89.8104,56.3346 C89.8104,61.3526 91.0484,66.0836 93.2324,70.2466 C94.6674,72.9796 96.5094,75.4666 98.6794,77.6236 C104.1134,83.0256 111.5974,86.3706 119.8474,86.3706 C136.4084,86.3706 149.8834,72.8966 149.8834,56.3346 C149.8834,51.7006 148.8284,47.3086 146.9464,43.3866" id="Fill-25" fill="#FFFFFF"></path>
                <path d="M28.6556,211.2516 L38.7836,211.2516 C40.0926,211.2516 41.1536,210.1906 41.1536,208.8816 L41.1536,200.2766 C41.1536,198.6526 41.1776,196.8486 41.2296,194.8666 C41.2796,192.8856 41.3556,190.8796 41.4586,188.8466 C41.5576,186.8146 41.6606,184.8066 41.7626,182.8246 C41.8636,180.8436 41.9656,179.0416 42.0676,177.4146 L41.4586,177.4146 C40.2396,180.3626 38.9676,183.2586 37.6476,186.1026 C36.3256,188.9486 34.9546,191.8446 33.5326,194.7906 L26.5676,207.7606 C25.7186,209.3396 26.8636,211.2516 28.6556,211.2516 Z M41.1536,250.3406 L41.1536,233.4376 C41.1536,232.1286 40.0926,231.0666 38.7836,231.0666 L2.3706,231.0666 C1.0606,231.0666 0.0006,230.0056 0.0006,228.6966 L0.0006,213.4146 C0.0006,212.9956 0.1106,212.5856 0.3206,212.2246 L32.2376,157.2556 C32.6626,156.5246 33.4426,156.0756 34.2876,156.0756 L63.1716,156.0756 C64.4796,156.0756 65.5416,157.1376 65.5416,158.4456 L65.5416,208.8816 C65.5416,210.1906 66.6026,211.2516 67.9116,211.2516 L73.5356,211.2516 C74.8436,211.2516 75.9056,212.3136 75.9056,213.6226 L75.9056,228.6966 C75.9056,230.0056 74.8436,231.0666 73.5356,231.0666 L67.9116,231.0666 C66.6026,231.0666 65.5416,232.1286 65.5416,233.4376 L65.5416,250.3406 C65.5416,251.6486 64.4796,252.7106 63.1716,252.7106 L43.5236,252.7106 C42.2156,252.7106 41.1536,251.6486 41.1536,250.3406 Z" id="Stroke-26" stroke="#425765" stroke-width="4" stroke-linecap="round" stroke-linejoin="round" stroke-dasharray="0.6480000257492066,0.6480000257492066"></path>
                <path d="M120.4124,234.4205 C121.9354,234.4205 123.3844,234.0385 124.7564,233.2765 C126.1284,232.5145 127.3204,231.0175 128.3384,228.7805 C129.3524,226.5465 130.1664,223.4455 130.7764,219.4825 C131.3874,215.5205 131.6914,210.3375 131.6914,203.9355 C131.6914,197.5345 131.3874,192.4035 130.7764,188.5415 C130.1664,184.6815 129.3524,181.6825 128.3384,179.5485 C127.3204,177.4145 126.1284,176.0195 124.7564,175.3575 C123.3844,174.6965 121.9354,174.3655 120.4124,174.3655 C118.8884,174.3655 117.4394,174.6965 116.0674,175.3575 C114.6954,176.0195 113.5004,177.4145 112.4854,179.5485 C111.4694,181.6825 110.6574,184.6815 110.0474,188.5415 C109.4374,192.4035 109.1324,197.5345 109.1324,203.9355 C109.1324,210.3375 109.4374,215.5205 110.0474,219.4825 C110.6574,223.4455 111.4694,226.5465 112.4854,228.7805 C113.5004,231.0175 114.6954,232.5145 116.0674,233.2765 C117.4394,234.0385 118.8884,234.4205 120.4124,234.4205 Z M120.4124,254.5395 C115.0244,254.5395 110.1464,253.4465 105.7794,251.2625 C101.4094,249.0785 97.6254,245.8525 94.4244,241.5835 C91.2244,237.3165 88.7584,232.0335 87.0314,225.7325 C85.3034,219.4325 84.4404,212.1665 84.4404,203.9355 C84.4404,195.7045 85.3034,188.4645 87.0314,182.2155 C88.7584,175.9665 91.2244,170.7835 94.4244,166.6685 C97.6254,162.5535 101.4094,159.4545 105.7794,157.3715 C110.1464,155.2895 115.0244,154.2465 120.4124,154.2465 C125.6944,154.2465 130.5484,155.2895 134.9684,157.3715 C139.3884,159.4545 143.1994,162.5795 146.3994,166.7445 C149.6004,170.9125 152.0634,176.0955 153.7924,182.2915 C155.5184,188.4905 156.3844,195.7045 156.3844,203.9355 C156.3844,212.1665 155.5184,219.4325 153.7924,225.7325 C152.0634,232.0335 149.6004,237.3165 146.3994,241.5835 C143.1994,245.8525 139.3884,249.0785 134.9684,251.2625 C130.5484,253.4465 125.6944,254.5395 120.4124,254.5395 Z" id="Stroke-27" stroke="#425765" stroke-width="4" stroke-linecap="round" stroke-linejoin="round" stroke-dasharray="0.6480000257492066,0.6480000257492066"></path>
                <path d="M193.2689,211.2516 L203.3969,211.2516 C204.7059,211.2516 205.7669,210.1906 205.7669,208.8816 L205.7669,200.2766 C205.7669,198.6526 205.7899,196.8486 205.8429,194.8666 C205.8929,192.8856 205.9689,190.8796 206.0719,188.8466 C206.1709,186.8146 206.2739,184.8066 206.3759,182.8246 C206.4769,180.8436 206.5789,179.0416 206.6809,177.4146 L206.0719,177.4146 C204.8519,180.3626 203.5809,183.2586 202.2599,186.1026 C200.9389,188.9486 199.5679,191.8446 198.1459,194.7906 L191.1799,207.7606 C190.3319,209.3396 191.4759,211.2516 193.2689,211.2516 Z M236.1549,231.0666 L232.5249,231.0666 C231.2149,231.0666 230.1549,232.1286 230.1549,233.4376 L230.1549,250.3406 C230.1549,251.6486 229.0929,252.7106 227.7839,252.7106 L208.1369,252.7106 C206.8289,252.7106 205.7669,251.6486 205.7669,250.3406 L205.7669,233.4376 C205.7669,232.1286 204.7059,231.0666 203.3969,231.0666 L166.9839,231.0666 C165.6739,231.0666 164.6129,230.0056 164.6129,228.6966 L164.6129,213.4146 C164.6129,212.9956 164.7239,212.5856 164.9329,212.2246 L196.8509,157.2556 C197.2749,156.5246 198.0559,156.0756 198.9009,156.0756 L227.7839,156.0756 C229.0929,156.0756 230.1549,157.1376 230.1549,158.4456 L230.1549,208.8816 C230.1549,210.1906 231.2149,211.2516 232.5249,211.2516 L241.3089,211.2516 C242.6179,211.2516 243.6789,212.3136 243.6789,213.6226 L243.6789,220.4016" id="Stroke-28" stroke="#425765" stroke-width="4" stroke-linecap="round" stroke-linejoin="round" stroke-dasharray="0.6480000257492066,0.6480000257492066"></path>
                <path d="M179.9738,256.5858 C178.9238,257.9748 176.2438,257.2578 176.4658,255.6498 C177.3118,249.5518 180.0468,244.1908 183.2478,239.7998 C184.1308,238.5868 182.5768,237.1718 180.9208,237.6778 C162.5458,243.2888 154.0858,250.5088 150.2378,256.4328 C150.6928,247.7008 153.8878,243.8378 157.6258,237.8268 C158.4078,236.5708 156.7478,235.2328 155.1368,235.8228 C138.5768,241.8828 130.0138,245.7948 125.6218,252.4728 C124.9208,253.5378 122.9858,253.5378 122.2858,252.4728 C117.8928,245.7948 109.3308,241.8828 92.7698,235.8228 C91.1588,235.2328 89.4998,236.5708 90.2808,237.8268 C94.2558,244.2208 97.6108,248.6748 97.7148,258.1148 C100.7258,263.7738 79.8868,241.9058 66.0408,237.6778 C64.3838,237.1718 62.8308,238.5868 63.7138,239.7998 C66.9148,244.1908 69.6488,249.5518 70.4948,255.6498 C70.7168,257.2578 68.0368,257.9748 66.9878,256.5858 C62.9818,251.2838 54.5158,244.9568 36.8168,239.9948 C35.1348,239.5228 33.6438,240.9848 34.5818,242.1828 C38.8278,247.6018 52.0568,252.0028 51.1238,260.0648 C51.0238,260.9358 78.3125127,293.056398 122.759766,292.823242 C152.391268,292.667805 176.679279,281.495658 195.6238,259.3068 C194.6918,251.2438 208.1328,247.6018 212.3788,242.1828 C213.3168,240.9848 211.8268,239.5228 210.1448,239.9948 C192.4458,244.9568 183.9788,251.2838 179.9738,256.5858 Z" id="Fill-29" fill="#48CEC1"></path>
                <path d="M36.6907,245.7399 C53.9087,250.7019 62.1447,257.0299 66.0417,262.3319 C67.0627,263.7199 69.6707,263.0029 69.4537,261.3959 C68.6307,255.2979 65.9697,249.9369 62.8567,245.5459 C61.9977,244.3329 63.5087,242.9179 65.1197,243.4229 C84.7267,249.5779 92.7277,257.6669 95.9337,263.8609 C95.8337,254.4209 92.5697,249.9659 88.7017,243.5729 C87.9417,242.3159 89.5557,240.9789 91.1237,241.5689 C107.2337,247.6289 115.5637,251.5409 119.8367,258.2189 C120.5177,259.2829 122.4017,259.2829 123.0837,258.2189 C127.3557,251.5409 135.6857,247.6289 151.7957,241.5679 C153.3637,240.9789 154.9777,242.3159 154.2177,243.5729 C150.5817,249.5839 147.4727,253.4469 147.0307,262.1789 C150.7747,256.2539 159.0047,249.0349 176.8797,243.4229 C178.4907,242.9179 180.0027,244.3329 179.1427,245.5459 C176.0297,249.9369 173.3697,255.2979 172.5457,261.3959 C172.3297,263.0029 174.9377,263.7199 175.9587,262.3319 C179.8547,257.0299 188.0907,250.7019 205.3097,245.7399" id="Stroke-30" stroke="#425765" stroke-width="2.5" stroke-linecap="round" stroke-linejoin="round" stroke-dasharray="1,1"></path>
                <path d="M246.7513,227.9098 C245.8263,226.2128 243.7003,225.5868 242.0043,226.5128 C240.3073,227.4368 239.6813,229.5618 240.6063,231.2598 C241.5313,232.9568 243.6563,233.5818 245.3543,232.6568 C247.0513,231.7318 247.6763,229.6058 246.7513,227.9098" id="Fill-31" fill="#425765"></path>
            </g>
        </g>
    </g>
</svg>