<?xml version="1.0" encoding="UTF-8"?>
<svg width="288px" height="288px" viewBox="0 0 288 288" version="1.1" xmlns="http://www.w3.org/2000/svg" xmlns:xlink="http://www.w3.org/1999/xlink">
    <!-- Generator: Sketch 49.3 (51167) - http://www.bohemiancoding.com/sketch -->
    <title>illustration/square/connection-error</title>
    <desc>Created with Sketch.</desc>
    <defs></defs>
    <g id="illustration/square/connection-error" stroke="none" stroke-width="1" fill="none" fill-rule="evenodd">
        <g id="illustration/element/circles" transform="translate(19.000000, 19.000000)" fill="#EFF0F0">
            <g id="-outer-rings" transform="translate(0.000000, 0.008799)">
                <g id="Group">
                    <path d="M10.5333818,73.0194273 C11.8912144,70.5779578 14.9636393,69.704696 17.3949698,71.0681911 C19.8263002,72.4322248 20.6964719,75.5174622 19.3381028,77.9589317 C17.9797337,80.4004013 14.9078453,81.273663 12.4765148,79.910168 C10.0451844,78.5461343 9.17501269,75.4608968 10.5333818,73.0194273" id="dot"></path>
                    <path d="M202.533382,172.415427 C203.891214,169.973958 206.963639,169.100696 209.39497,170.464191 C211.8263,171.828225 212.696472,174.913462 211.338103,177.354932 C209.979734,179.796401 206.907845,180.669663 204.476515,179.306168 C202.045184,177.942134 201.175013,174.856897 202.533382,172.415427" id="dot"></path>
                    <path d="M99.4331414,247.866701 C66.818871,241.079932 38.7882916,221.94575 20.5055663,193.988446 C2.22230452,166.031142 -4.12426201,132.59777 2.63485816,99.8469537 C2.99537319,98.0993528 4.69655344,96.9755873 6.44011567,97.3381444 C8.18045902,97.7001628 9.29955773,99.4111309 8.93850623,101.15927 C2.52863499,132.218512 8.54741181,163.925832 25.8870041,190.439372 C43.2255234,216.953451 69.8092144,235.100164 100.740008,241.536765 C108.808678,243.215949 116.924558,244.045575 124.978206,244.045575 C147.795802,244.046652 170.133249,237.38756 189.649343,224.518128 C216.052777,207.107304 234.124665,180.412755 240.534536,149.352974 C246.943871,118.293193 240.925631,86.5864125 223.586038,60.0723335 C206.246983,33.5582545 179.663828,15.4120807 148.733034,8.97547924 C117.802777,2.53941646 86.2276693,8.58275389 59.8226264,25.9941165 C47.2099655,34.3119209 36.4433346,44.7937551 27.8236994,57.147634 C26.6278839,58.8612957 25.4647938,60.6261355 24.3671543,62.3947464 C23.4267037,63.9096212 21.4406522,64.3723798 19.9326049,63.4269299 C18.4234848,62.4820187 17.9637208,60.4887625 18.9047079,58.9738877 C20.0635062,57.1083076 21.2899011,55.2459599 22.5511672,53.4385613 C31.640223,40.4107463 42.9916178,29.3589485 56.2888281,20.5902372 C84.1305663,2.23180854 117.426167,-4.14122424 150.039365,2.64554389 C182.653635,9.4317733 210.684214,28.5664945 228.967476,56.5237987 C247.250738,84.481103 253.597305,117.913936 246.838184,150.664752 C240.079064,183.41503 221.024343,211.562501 193.183141,229.921469 C172.606425,243.490695 149.049021,250.511806 124.991081,250.512344 C116.497519,250.512883 107.943335,249.637466 99.4331414,247.866701 Z" id="outer-ring"></path>
                    <path d="M124.802521,224.697365 C113.506384,224.697365 102.176448,222.738048 91.2274142,218.798943 C39.6571352,200.244421 12.7338519,143.01965 31.2113197,91.2348532 C49.6882511,39.4500561 106.676985,12.4144982 158.245655,30.9684815 C209.815397,49.5224647 236.738144,106.747774 218.261749,158.532571 C217.661964,160.213371 215.817006,161.086633 214.145869,160.485423 C212.472049,159.882598 211.601878,158.032641 212.201127,156.35238 C229.480633,107.922718 204.301985,54.4064812 156.074517,37.0543776 C132.711856,28.6482235 107.488144,29.8813487 85.0487661,40.5269532 C62.6099249,51.1725577 45.6421137,69.9549573 37.2719421,93.4150445 C19.9924356,141.844168 45.1700107,195.360943 93.3985515,212.713047 C116.761212,221.118662 141.985998,219.884459 164.423766,209.239932 C175.144796,204.153896 184.6625,197.182348 192.714002,188.517609 C193.827736,187.318962 194.925376,186.073446 195.975268,184.815001 C197.117972,183.447735 199.148015,183.268881 200.510139,184.414195 C201.872264,185.561126 202.050912,187.599634 200.909281,188.967978 C199.786427,190.313695 198.612607,191.645406 197.420547,192.928093 C188.811105,202.193502 178.634603,209.647742 167.173766,215.084483 C153.696298,221.478525 139.27838,224.697365 124.802521,224.697365" id="inner-ring"></path>
                </g>
            </g>
        </g>
        <g id="chain" transform="translate(19.000000, 76.000000)" fill-rule="nonzero">
            <path d="M98.6664231,96.5036708 C103.157453,92.0126415 110.43885,92.0126415 114.929879,96.5036708 C119.420908,100.9947 119.420908,108.276097 114.929879,112.767127 L86.2937903,141.403216 C68.5072162,159.18979 39.6815726,159.212056 21.9099027,141.440386 C4.13823276,123.668716 4.16049909,94.8430726 21.9470733,77.0564985 L58.4018442,40.6017275 C77.1050687,21.898503 107.428987,21.898503 126.132212,40.6017275 C130.77458,45.291434 130.736938,52.572734 126.222752,57.0404867 C121.708566,61.5082394 114.427266,61.4705978 109.959514,56.9564118 C100.14759,47.1440177 84.386466,47.1440177 74.6653002,56.8651835 L38.2105292,93.3199544 C29.4003941,102.13009 29.3893767,116.392948 38.1733587,125.17693 C46.9573406,133.960912 61.2201992,133.949895 70.0303344,125.13976 L98.6664231,96.5036708 Z M156.765836,43.2060803 C151.009627,45.8902449 144.167351,43.3998604 141.483187,37.6436508 C138.799022,31.8874411 141.289407,25.0451658 147.045616,22.3610012 L183.748857,5.24599908 C206.546136,-5.38454677 233.640996,4.45348047 244.262634,27.2316567 C254.884272,50.0098328 245.004398,77.0894619 222.207119,87.7200077 L175.482573,109.508021 C151.510412,120.686424 123.015249,110.315033 111.836847,86.342871 C109.078422,80.3482049 111.604145,73.5188953 117.374153,70.8645235 C123.144162,68.2101518 129.973472,70.7358746 132.627843,76.5058833 C138.491999,89.0823933 153.302611,94.4730151 165.762353,88.6629419 L212.486899,66.8749286 C223.778961,61.6093533 228.667499,48.2104184 223.417555,36.9518767 C218.167611,25.6933349 204.76114,20.8255029 193.469077,26.0910782 L156.765836,43.2060803 Z" id="white-mask" fill="#FFFFFF"></path>
            <path d="M90.6664231,102.503671 C95.1574525,98.0126415 102.43885,98.0126415 106.929879,102.503671 C111.420908,106.9947 111.420908,114.276097 106.929879,118.767127 L78.2937903,147.403216 C60.5072162,165.18979 31.6815726,165.212056 13.9099027,147.440386 C-3.86176724,129.668716 -3.83950091,100.843073 13.9470733,83.0564985 L50.4018442,46.6017275 C69.1050687,27.898503 99.4289872,27.898503 118.132212,46.6017275 C122.77458,51.291434 122.736938,58.572734 118.222752,63.0404867 C113.708566,67.5082394 106.427266,67.4705978 101.959514,62.9564118 C92.1475899,53.1440177 76.386466,53.1440177 66.6653002,62.8651835 L30.2105292,99.3199544 C21.4003941,108.13009 21.3893767,122.392948 30.1733587,131.17693 C38.9573406,139.960912 53.2201992,139.949895 62.0303344,131.13976 L90.6664231,102.503671 Z M148.765836,49.2060803 C143.009627,51.8902449 136.167351,49.3998604 133.483187,43.6436508 C130.799022,37.8874411 133.289407,31.0451658 139.045616,28.3610012 L175.748857,11.2459991 C198.546136,0.615453233 225.640996,10.4534805 236.262634,33.2316567 C246.884272,56.0098328 237.004398,83.0894619 214.207119,93.7200077 L167.482573,115.508021 C143.510412,126.686424 115.015249,116.315033 103.836847,92.342871 C101.078422,86.3482049 103.604145,79.5188953 109.374153,76.8645235 C115.144162,74.2101518 121.973472,76.7358746 124.627843,82.5058833 C130.491999,95.0823933 145.302611,100.473015 157.762353,94.6629419 L204.486899,72.8749286 C215.778961,67.6093533 220.667499,54.2104184 215.417555,42.9518767 C210.167611,31.6933349 196.76114,26.8255029 185.469077,32.0910782 L148.765836,49.2060803 Z" id="grey-fill" fill="#E6EBEB"></path>
            <path d="M99.072286,97.5407685 C103.563315,93.0497392 110.844713,93.0497392 115.335742,97.5407685 C119.826771,102.031798 119.826771,109.313195 115.335742,113.804225 L86.6996532,142.440313 C68.9130791,160.226887 40.0874355,160.249154 22.3157656,142.477484 C4.54409564,124.705814 4.56636197,95.8801704 22.3529361,78.0935962 L58.8077071,41.6388253 C77.5109316,22.9356007 107.83485,22.9356007 126.538075,41.6388253 C131.180443,46.3285318 131.142801,53.6098317 126.628615,58.0775844 C122.114429,62.5453371 114.833129,62.5076955 110.365377,57.9935096 C100.553453,48.1811154 84.7923289,48.1811154 75.071163,57.9022812 L38.6163921,94.3570522 C29.8062569,103.167187 29.7952396,117.430046 38.5792215,126.214028 C47.3632034,134.99801 61.6260621,134.986992 70.4361973,126.176857 L99.072286,97.5407685 Z M161.171699,42.243178 C155.41549,44.9273427 148.573214,42.4369581 145.88905,36.6807485 C143.204885,30.9245388 145.69527,24.0822636 151.451479,21.3980989 L188.15472,4.28309681 C210.951999,-6.34744903 238.046859,3.4905782 248.668497,26.2687544 C259.290135,49.0469306 249.410261,76.1265596 226.612982,86.7571054 L179.888436,108.545119 C155.916275,119.723521 127.421112,109.35213 116.24271,85.3799687 C113.484285,79.3853026 116.010008,72.555993 121.780016,69.9016213 C127.550025,67.2472496 134.379335,69.7729724 137.033706,75.542981 C142.897862,88.119491 157.708474,93.5101129 170.168216,87.7000396 L216.892762,65.9120263 C228.184824,60.646451 233.073362,47.2475161 227.823418,35.9889744 C222.573474,24.7304327 209.167002,19.8626006 197.87494,25.1281759 L161.171699,42.243178 Z" id="chain-outline" stroke="#425765" stroke-width="4"></path>
        </g>
        <g id="boom" transform="translate(153.000000, 221.500000) scale(1, -1) rotate(-315.000000) translate(-153.000000, -221.500000) translate(116.000000, 201.000000)">
            <path d="M31.305687,2.21036359 C34.8374476,0.637922477 38.9752206,2.22626472 40.5476617,5.75802529 L46.2419747,18.5476617 C47.8144158,22.0794223 46.2260736,26.2171953 42.694313,27.7896364 C39.1625524,29.3620775 35.0247794,27.7737353 33.4523383,24.2419747 L27.7580253,11.4523383 C26.1855842,7.92057773 27.7739264,3.78280471 31.305687,2.21036359 Z M4.62224615,24.490287 C6.07047272,20.9058005 10.1502928,19.1740196 13.7347793,20.6222462 L26.7153533,25.8667385 C30.2998398,27.314965 32.0316206,31.3947851 30.5833941,34.9792716 C29.1351675,38.5637581 25.0553475,40.295539 21.4708609,38.8473124 L8.49028698,33.6028201 C4.90580046,32.1545936 3.17401959,28.0747735 4.62224615,24.490287 Z M67.9792716,2.62224615 C71.5637581,4.07047272 73.295539,8.15029277 71.8473124,11.7347793 L66.6028201,24.7153533 C65.1545936,28.2998398 61.0747735,30.0316206 57.490287,28.5833941 C53.9058005,27.1351675 52.1740196,23.0553475 53.6222462,19.4708609 L58.8667385,6.49028698 C60.314965,2.90580046 64.3947851,1.17401959 67.9792716,2.62224615 Z" id="white-mask" fill="#FFFFFF"></path>
            <path d="M27.305687,3.21036359 C30.8374476,1.63792248 34.9752206,3.22626472 36.5476617,6.75802529 L42.2419747,19.5476617 C43.8144158,23.0794223 42.2260736,27.2171953 38.694313,28.7896364 C35.1625524,30.3620775 31.0247794,28.7737353 29.4523383,25.2419747 L23.7580253,12.4523383 C22.1855842,8.92057773 23.7739264,4.78280471 27.305687,3.21036359 Z M0.622246154,25.490287 C2.07047272,21.9058005 6.15029277,20.1740196 9.73477929,21.6222462 L22.7153533,26.8667385 C26.2998398,28.314965 28.0316206,32.3947851 26.5833941,35.9792716 C25.1351675,39.5637581 21.0553475,41.295539 17.4708609,39.8473124 L4.49028698,34.6028201 C0.90580046,33.1545936 -0.825980407,29.0747735 0.622246154,25.490287 Z M63.9792716,3.62224615 C67.5637581,5.07047272 69.295539,9.15029277 67.8473124,12.7347793 L62.6028201,25.7153533 C61.1545936,29.2998398 57.0747735,31.0316206 53.490287,29.5833941 C49.9058005,28.1351675 48.1740196,24.0553475 49.6222462,20.4708609 L54.8667385,7.49028698 C56.314965,3.90580046 60.3947851,2.17401959 63.9792716,3.62224615 Z" id="🎨boom" fill="#EE0F6A"></path>
            <path d="M32.7124236,2.12390905 C29.6852003,3.47171572 28.3237641,7.01837831 29.6715708,10.0456017 L35.3658838,22.8352381 C36.7136904,25.8624614 40.260353,27.2238976 43.2875764,25.8760909 C46.3147997,24.5282843 47.6762359,20.9816217 46.3284292,17.9543983 L40.6341162,5.16476194 C39.2863096,2.13753859 35.739647,0.77610238 32.7124236,2.12390905 Z M6.54943001,23.8648936 C5.30809296,26.9373106 6.79247656,30.4342992 9.86489358,31.6756363 L22.8454675,36.9201286 C25.9178846,38.1614656 29.4148732,36.677082 30.6562102,33.604665 C31.8975473,30.532248 30.4131637,27.0352594 27.3407467,25.7939223 L14.3601727,20.54943 C11.2877557,19.308093 7.79076706,20.7924766 6.54943001,23.8648936 Z M68.604665,2.54943001 C65.532248,1.30809296 62.0352594,2.79247656 60.7939223,5.86489358 L55.54943,18.8454675 C54.308093,21.9178846 55.7924766,25.4148732 58.8648936,26.6562102 C61.9373106,27.8975473 65.4342992,26.4131637 66.6756363,23.3407467 L71.9201286,10.3601727 C73.1614656,7.28775568 71.677082,3.79076706 68.604665,2.54943001 Z" id="boom-outline" stroke="#425765" stroke-width="2"></path>
        </g>
        <g id="boom" transform="translate(98.000000, 48.000000)">
            <path d="M31.305687,2.21036359 C34.8374476,0.637922477 38.9752206,2.22626472 40.5476617,5.75802529 L46.2419747,18.5476617 C47.8144158,22.0794223 46.2260736,26.2171953 42.694313,27.7896364 C39.1625524,29.3620775 35.0247794,27.7737353 33.4523383,24.2419747 L27.7580253,11.4523383 C26.1855842,7.92057773 27.7739264,3.78280471 31.305687,2.21036359 Z M4.62224615,24.490287 C6.07047272,20.9058005 10.1502928,19.1740196 13.7347793,20.6222462 L26.7153533,25.8667385 C30.2998398,27.314965 32.0316206,31.3947851 30.5833941,34.9792716 C29.1351675,38.5637581 25.0553475,40.295539 21.4708609,38.8473124 L8.49028698,33.6028201 C4.90580046,32.1545936 3.17401959,28.0747735 4.62224615,24.490287 Z M67.9792716,2.62224615 C71.5637581,4.07047272 73.295539,8.15029277 71.8473124,11.7347793 L66.6028201,24.7153533 C65.1545936,28.2998398 61.0747735,30.0316206 57.490287,28.5833941 C53.9058005,27.1351675 52.1740196,23.0553475 53.6222462,19.4708609 L58.8667385,6.49028698 C60.314965,2.90580046 64.3947851,1.17401959 67.9792716,2.62224615 Z" id="white-mask" fill="#FFFFFF"></path>
            <path d="M27.305687,3.21036359 C30.8374476,1.63792248 34.9752206,3.22626472 36.5476617,6.75802529 L42.2419747,19.5476617 C43.8144158,23.0794223 42.2260736,27.2171953 38.694313,28.7896364 C35.1625524,30.3620775 31.0247794,28.7737353 29.4523383,25.2419747 L23.7580253,12.4523383 C22.1855842,8.92057773 23.7739264,4.78280471 27.305687,3.21036359 Z M0.622246154,25.490287 C2.07047272,21.9058005 6.15029277,20.1740196 9.73477929,21.6222462 L22.7153533,26.8667385 C26.2998398,28.314965 28.0316206,32.3947851 26.5833941,35.9792716 C25.1351675,39.5637581 21.0553475,41.295539 17.4708609,39.8473124 L4.49028698,34.6028201 C0.90580046,33.1545936 -0.825980407,29.0747735 0.622246154,25.490287 Z M63.9792716,3.62224615 C67.5637581,5.07047272 69.295539,9.15029277 67.8473124,12.7347793 L62.6028201,25.7153533 C61.1545936,29.2998398 57.0747735,31.0316206 53.490287,29.5833941 C49.9058005,28.1351675 48.1740196,24.0553475 49.6222462,20.4708609 L54.8667385,7.49028698 C56.314965,3.90580046 60.3947851,2.17401959 63.9792716,3.62224615 Z" id="🎨boom" fill="#EE0F6A"></path>
            <path d="M32.7124236,2.12390905 C29.6852003,3.47171572 28.3237641,7.01837831 29.6715708,10.0456017 L35.3658838,22.8352381 C36.7136904,25.8624614 40.260353,27.2238976 43.2875764,25.8760909 C46.3147997,24.5282843 47.6762359,20.9816217 46.3284292,17.9543983 L40.6341162,5.16476194 C39.2863096,2.13753859 35.739647,0.77610238 32.7124236,2.12390905 Z M6.54943001,23.8648936 C5.30809296,26.9373106 6.79247656,30.4342992 9.86489358,31.6756363 L22.8454675,36.9201286 C25.9178846,38.1614656 29.4148732,36.677082 30.6562102,33.604665 C31.8975473,30.532248 30.4131637,27.0352594 27.3407467,25.7939223 L14.3601727,20.54943 C11.2877557,19.308093 7.79076706,20.7924766 6.54943001,23.8648936 Z M68.604665,2.54943001 C65.532248,1.30809296 62.0352594,2.79247656 60.7939223,5.86489358 L55.54943,18.8454675 C54.308093,21.9178846 55.7924766,25.4148732 58.8648936,26.6562102 C61.9373106,27.8975473 65.4342992,26.4131637 66.6756363,23.3407467 L71.9201286,10.3601727 C73.1614656,7.28775568 71.677082,3.79076706 68.604665,2.54943001 Z" id="boom-outline" stroke="#425765" stroke-width="2"></path>
        </g>
    </g>
</svg>