<?xml version="1.0" encoding="UTF-8"?>
<svg width="250px" height="344px" viewBox="0 0 250 344" version="1.1" xmlns="http://www.w3.org/2000/svg" xmlns:xlink="http://www.w3.org/1999/xlink">
    <!-- Generator: Sketch 47 (45396) - http://www.bohemiancoding.com/sketch -->
    <title>illustration/email</title>
    <desc>Created with Sketch.</desc>
    <defs>
        <path d="M206.320217,36.0339119 C221.921437,36.8101 233.93926,50.0890601 233.16551,65.6910005 C232.386272,81.2873569 219.111791,93.3098973 203.505083,92.5337091 C187.909351,91.757521 175.886041,78.4785609 176.665279,62.8766204 C177.439029,47.27468 190.718998,35.2521396 206.320217,36.0339119" id="path-1"></path>
        <path d="M222.135446,48.4576284 C223.553738,48.5281909 224.646268,49.7353691 224.575927,51.1537273 C224.505087,52.5715779 223.298316,53.6645361 221.879525,53.5939736 C220.461731,53.523411 219.368702,52.3162328 219.439542,50.8978746 C219.509883,49.4795164 220.717153,48.3865581 222.135446,48.4576284" id="path-3"></path>
        <path d="M3.64002305,0.533899743 C5.29469784,0.61622273 6.56931543,2.02459728 6.48725101,3.67934854 C6.40460457,5.33350755 4.99670505,6.60862547 3.34144824,6.52630248 C1.68735546,6.4439795 0.412155857,5.03560494 0.494802294,3.38085368 C0.576866714,1.72610242 1.98534825,0.450984505 3.64002305,0.533899743" id="path-5"></path>
    </defs>
    <g id="Page-1" stroke="none" stroke-width="1" fill="none" fill-rule="evenodd">
        <g id="illustration/email">
            <g id="Group" transform="translate(0.000000, 47.000000)">
                <g id="illustration/element/circles" fill="#EFF0F0">
                    <g id="-outer-rings" transform="translate(0.000000, 0.008764)">
                        <g id="Group">
                            <path d="M10.5333818,72.7285132 C11.8912144,70.2967707 14.9636393,69.4269881 17.3949698,70.7850509 C19.8263002,72.1436502 20.6964719,75.2165958 19.3381028,77.6483384 C17.9797337,80.0800809 14.9078453,80.9498635 12.4765148,79.5918008 C10.0451844,78.2332014 9.17501269,75.1602558 10.5333818,72.7285132" id="dot"></path>
                            <path d="M202.533382,171.728513 C203.891214,169.296771 206.963639,168.426988 209.39497,169.785051 C211.8263,171.14365 212.696472,174.216596 211.338103,176.648338 C209.979734,179.080081 206.907845,179.949864 204.476515,178.591801 C202.045184,177.233201 201.175013,174.160256 202.533382,171.728513" id="dot"></path>
                            <path d="M99.4331414,246.879184 C66.818871,240.119455 38.7882916,221.061504 20.5055663,193.215583 C2.22230452,165.369663 -4.12426201,132.069492 2.63485816,99.4491571 C2.99537319,97.7085187 4.69655344,96.5892303 6.44011567,96.950343 C8.18045902,97.3109192 9.29955773,99.0150706 8.93850623,100.756246 C2.52863499,131.691745 8.54741181,163.272741 25.8870041,189.68065 C43.2255234,216.089095 69.8092144,234.16351 100.740008,240.574467 C108.808678,242.246961 116.924558,243.073281 124.978206,243.073281 C147.795802,243.074355 170.133249,236.441793 189.649343,223.623633 C216.052777,206.282175 234.124665,179.693979 240.534536,148.757942 C246.943871,117.821906 240.925631,86.2414467 223.586038,59.8330015 C206.246983,33.4245563 179.663828,15.350678 148.733034,8.93972036 C117.802777,2.52929927 86.2276693,8.54855965 59.8226264,25.8905543 C47.2099655,34.17522 36.4433346,44.6152939 27.8236994,56.9199542 C26.6278839,58.6267885 25.4647938,60.3845971 24.3671543,62.1461618 C23.4267037,63.6550011 21.4406522,64.1159162 19.9326049,63.174233 C18.4234848,62.2330864 17.9637208,60.2477714 18.9047079,58.738932 C20.0635062,56.8807845 21.2899011,55.0258564 22.5511672,53.2256587 C31.640223,40.2497473 42.9916178,29.2419806 56.2888281,20.5082044 C84.1305663,2.22291687 117.426167,-4.12472534 150.039365,2.63500387 C182.653635,9.39419652 210.684214,28.4526837 228.967476,56.2986043 C247.250738,84.1445249 253.597305,117.444159 246.838184,150.064494 C240.079064,182.684292 221.024343,210.719623 193.183141,229.005447 C172.606425,242.520613 149.049021,249.513751 124.991081,249.514287 C116.497519,249.514824 107.943335,248.642895 99.4331414,246.879184 Z" id="outer-ring"></path>
                            <path d="M124.802521,223.802156 C113.506384,223.802156 102.176448,221.850645 91.2274142,217.927234 C39.6571352,199.446634 12.7338519,142.449851 31.2113197,90.8713677 C49.6882511,39.2928846 106.676985,12.365038 158.245655,30.8451011 C209.815397,49.3251641 236.738144,106.322484 218.261749,157.900967 C217.661964,159.575071 215.817006,160.444853 214.145869,159.846039 C212.472049,159.245616 211.601878,157.403029 212.201127,155.729462 C229.480633,107.492747 204.301985,54.1897223 156.074517,36.9067506 C132.711856,28.5340871 107.488144,29.7622995 85.0487661,40.3654912 C62.6099249,50.9686829 45.6421137,69.6762523 37.2719421,93.042873 C19.9924356,141.279052 45.1700107,194.582612 93.3985515,211.865584 C116.761212,220.237711 141.985998,219.008426 164.423766,208.406307 C175.144796,203.340534 184.6625,196.396761 192.714002,187.766543 C193.827736,186.572671 194.925376,185.332118 195.975268,184.078686 C197.117972,182.716868 199.148015,182.538726 200.510139,183.679477 C201.872264,184.821838 202.050912,186.852225 200.909281,188.215117 C199.786427,189.555473 198.612607,190.881878 197.420547,192.159455 C188.811105,201.38795 178.634603,208.812492 167.173766,214.227572 C153.696298,220.596141 139.27838,223.802156 124.802521,223.802156" id="inner-ring"></path>
                        </g>
                    </g>
                </g>
                <path d="M40,165.195286 C40,171.954052 45.6697537,178 51.8620131,178 L200.137987,178 C206.329706,178 212,171.954052 212,165.195286 L212,67.9471689 C212,61.1819035 206.329706,55 200.137987,55 L169.387421,55 L51.8620131,55 C45.6697537,55 40,61.1819035 40,67.9471689 L40,165.195286 Z" id="Fill-5" fill="#FFFFFF"></path>
                <path d="M32,178.195286 C32,184.954052 37.6697537,191 43.8620131,191 L192.137987,191 C198.329706,191 204,184.954052 204,178.195286 L204,80.9471689 C204,74.1819035 198.329706,68 192.137987,68 L161.387421,68 L43.8620131,68 C37.6697537,68 32,74.1819035 32,80.9471689 L32,178.195286 Z" id="Fill-5" fill="#EFF0F0"></path>
                <path d="M38.6764208,168.691517 C38.6764208,175.737243 44.4532958,182.040486 50.7620875,182.040486 L201.836712,182.040486 C208.144962,182.040486 213.922379,175.737243 213.922379,168.691517 L213.922379,67.3113769 C213.922379,60.2586002 208.144962,53.8138028 201.836712,53.8138028 L170.505629,53.8138028 L50.7620875,53.8138028 C44.4532958,53.8138028 38.6764208,60.2586002 38.6764208,67.3113769 L38.6764208,168.691517 Z" id="Stroke-3" stroke="#425765" stroke-width="4" stroke-linecap="round" stroke-linejoin="round" stroke-dasharray="0.8,0.8"></path>
                <path d="M151,166.113281 L197.158203,122" id="Stroke-2" stroke="#425765" stroke-width="4" stroke-linecap="round" stroke-linejoin="round" stroke-dasharray="1,1" transform="translate(174.079102, 144.056641) scale(-1, 1) translate(-174.079102, -144.056641) "></path>
                <path d="M66.8996917,86.2324951 L116.958358,116.535463 C122.659942,119.986464 129.839733,119.830808 135.386942,116.135748 C155.711032,102.596591 170.9541,92.4422233 181.116146,85.6726449" id="Stroke-7" stroke="#425765" stroke-width="4" stroke-linecap="round" stroke-linejoin="round" stroke-dasharray="0.8,0.8"></path>
                <path d="M53,166 L99.1582031,121.886719" id="Stroke-2" stroke="#425765" stroke-width="4" stroke-linecap="round" stroke-linejoin="round" stroke-dasharray="1,1"></path>
                <mask id="mask-2" fill="white">
                    <use xlink:href="#path-1"></use>
                </mask>
                <use id="Mask" fill="#9468F8" xlink:href="#path-1"></use>
                <path d="M219,74 L197,54" id="Stroke-1-Copy" stroke="#FFFFFF" stroke-width="4" stroke-linecap="round" stroke-linejoin="round"></path>
                <mask id="mask-4" fill="white">
                    <use xlink:href="#path-3"></use>
                </mask>
                <use id="Mask" fill="#FFFFFF" xlink:href="#path-3"></use>
                <path d="M217,73 L197,56" id="Stroke-1-Copy" stroke="#FFFFFF" stroke-width="4" stroke-linecap="round" stroke-linejoin="round" transform="translate(207.000000, 64.500000) scale(-1, 1) translate(-207.000000, -64.500000) "></path>
                <circle id="Oval" stroke="#425765" stroke-width="4" stroke-linecap="round" stroke-linejoin="round" stroke-dasharray="0.7,0.7" cx="209.5" cy="60.5" r="28.5"></circle>
                <g id="dot" transform="translate(55.000000, 78.000000)">
                    <mask id="mask-6" fill="white">
                        <use xlink:href="#path-5"></use>
                    </mask>
                    <use id="Mask" fill="#425765" fill-rule="evenodd" xlink:href="#path-5"></use>
                </g>
            </g>
        </g>
    </g>
</svg>