<?xml version="1.0" encoding="UTF-8"?>
<svg width="250px" height="344px" viewBox="0 0 250 344" version="1.1" xmlns="http://www.w3.org/2000/svg" xmlns:xlink="http://www.w3.org/1999/xlink">
    <!-- Generator: Sketch 47 (45396) - http://www.bohemiancoding.com/sketch -->
    <title>illustration/email sent</title>
    <desc>Created with Sketch.</desc>
    <defs>
        <path d="M3.64002305,0.533899743 C5.29469784,0.61622273 6.56931543,2.02459728 6.48725101,3.67934854 C6.40460457,5.33350755 4.99670505,6.60862547 3.34144824,6.52630248 C1.68735546,6.4439795 0.412155857,5.03560494 0.494802294,3.38085368 C0.576866714,1.72610242 1.98534825,0.450984505 3.64002305,0.533899743" id="path-1"></path>
        <path d="M206.320217,36.0339119 C221.921437,36.8101 233.93926,50.0890601 233.16551,65.6910005 C232.386272,81.2873569 219.111791,93.3098973 203.505083,92.5337091 C187.909351,91.757521 175.886041,78.4785609 176.665279,62.8766204 C177.439029,47.27468 190.718998,35.2521396 206.320217,36.0339119" id="path-3"></path>
        <path d="M55.6464583,80.8092222 C55.6464583,82.6055 57.1035417,84.0633486 58.897,84.0633486 C60.6915417,84.0633486 62.147,82.6055 62.147,80.8092222 C62.147,79.0096903 60.6915417,77.5545534 58.897,77.5545534 C57.1035417,77.5545534 55.6464583,79.0096903 55.6464583,80.8092222 Z" id="path-5"></path>
    </defs>
    <g id="Page-1" stroke="none" stroke-width="1" fill="none" fill-rule="evenodd">
        <g id="illustration/email-sent">
            <g id="Group" transform="translate(0.000000, 47.000000)">
                <g id="illustration/element/circles" fill="#EFF0F0">
                    <g id="-outer-rings" transform="translate(0.000000, 0.008764)">
                        <g id="Group">
                            <path d="M10.5333818,72.7285132 C11.8912144,70.2967707 14.9636393,69.4269881 17.3949698,70.7850509 C19.8263002,72.1436502 20.6964719,75.2165958 19.3381028,77.6483384 C17.9797337,80.0800809 14.9078453,80.9498635 12.4765148,79.5918008 C10.0451844,78.2332014 9.17501269,75.1602558 10.5333818,72.7285132" id="dot"></path>
                            <path d="M202.533382,171.728513 C203.891214,169.296771 206.963639,168.426988 209.39497,169.785051 C211.8263,171.14365 212.696472,174.216596 211.338103,176.648338 C209.979734,179.080081 206.907845,179.949864 204.476515,178.591801 C202.045184,177.233201 201.175013,174.160256 202.533382,171.728513" id="dot"></path>
                            <path d="M99.4331414,246.879184 C66.818871,240.119455 38.7882916,221.061504 20.5055663,193.215583 C2.22230452,165.369663 -4.12426201,132.069492 2.63485816,99.4491571 C2.99537319,97.7085187 4.69655344,96.5892303 6.44011567,96.950343 C8.18045902,97.3109192 9.29955773,99.0150706 8.93850623,100.756246 C2.52863499,131.691745 8.54741181,163.272741 25.8870041,189.68065 C43.2255234,216.089095 69.8092144,234.16351 100.740008,240.574467 C108.808678,242.246961 116.924558,243.073281 124.978206,243.073281 C147.795802,243.074355 170.133249,236.441793 189.649343,223.623633 C216.052777,206.282175 234.124665,179.693979 240.534536,148.757942 C246.943871,117.821906 240.925631,86.2414467 223.586038,59.8330015 C206.246983,33.4245563 179.663828,15.350678 148.733034,8.93972036 C117.802777,2.52929927 86.2276693,8.54855965 59.8226264,25.8905543 C47.2099655,34.17522 36.4433346,44.6152939 27.8236994,56.9199542 C26.6278839,58.6267885 25.4647938,60.3845971 24.3671543,62.1461618 C23.4267037,63.6550011 21.4406522,64.1159162 19.9326049,63.174233 C18.4234848,62.2330864 17.9637208,60.2477714 18.9047079,58.738932 C20.0635062,56.8807845 21.2899011,55.0258564 22.5511672,53.2256587 C31.640223,40.2497473 42.9916178,29.2419806 56.2888281,20.5082044 C84.1305663,2.22291687 117.426167,-4.12472534 150.039365,2.63500387 C182.653635,9.39419652 210.684214,28.4526837 228.967476,56.2986043 C247.250738,84.1445249 253.597305,117.444159 246.838184,150.064494 C240.079064,182.684292 221.024343,210.719623 193.183141,229.005447 C172.606425,242.520613 149.049021,249.513751 124.991081,249.514287 C116.497519,249.514824 107.943335,248.642895 99.4331414,246.879184 Z" id="outer-ring"></path>
                            <path d="M124.802521,223.802156 C113.506384,223.802156 102.176448,221.850645 91.2274142,217.927234 C39.6571352,199.446634 12.7338519,142.449851 31.2113197,90.8713677 C49.6882511,39.2928846 106.676985,12.365038 158.245655,30.8451011 C209.815397,49.3251641 236.738144,106.322484 218.261749,157.900967 C217.661964,159.575071 215.817006,160.444853 214.145869,159.846039 C212.472049,159.245616 211.601878,157.403029 212.201127,155.729462 C229.480633,107.492747 204.301985,54.1897223 156.074517,36.9067506 C132.711856,28.5340871 107.488144,29.7622995 85.0487661,40.3654912 C62.6099249,50.9686829 45.6421137,69.6762523 37.2719421,93.042873 C19.9924356,141.279052 45.1700107,194.582612 93.3985515,211.865584 C116.761212,220.237711 141.985998,219.008426 164.423766,208.406307 C175.144796,203.340534 184.6625,196.396761 192.714002,187.766543 C193.827736,186.572671 194.925376,185.332118 195.975268,184.078686 C197.117972,182.716868 199.148015,182.538726 200.510139,183.679477 C201.872264,184.821838 202.050912,186.852225 200.909281,188.215117 C199.786427,189.555473 198.612607,190.881878 197.420547,192.159455 C188.811105,201.38795 178.634603,208.812492 167.173766,214.227572 C153.696298,220.596141 139.27838,223.802156 124.802521,223.802156" id="inner-ring"></path>
                        </g>
                    </g>
                </g>
                <path d="M40,165.195286 C40,171.954052 45.6697537,178 51.8620131,178 L200.137987,178 C206.329706,178 212,171.954052 212,165.195286 L212,67.9471689 C212,61.1819035 206.329706,55 200.137987,55 L169.387421,55 L51.8620131,55 C45.6697537,55 40,61.1819035 40,67.9471689 L40,165.195286 Z" id="Fill-5" fill="#FFFFFF"></path>
                <path d="M32.0002708,178.107142 C32.0002708,184.874641 37.6839792,190.928401 43.8914792,190.928401 L192.532396,190.928401 C198.739354,190.928401 204.423604,184.874641 204.423604,178.107142 L204.423604,80.7333746 C204.423604,73.9593681 198.739354,67.7694772 192.532396,67.7694772 L161.706146,67.7694772 L43.8914792,67.7694772 C37.6839792,67.7694772 32.0002708,73.9593681 32.0002708,80.7333746 L32.0002708,178.107142 Z" id="Fill-5" fill="#EFF0F0"></path>
                <path d="M38.6764208,168.691517 C38.6764208,175.737243 44.4532958,182.040486 50.7620875,182.040486 L201.836712,182.040486 C208.144962,182.040486 213.922379,175.737243 213.922379,168.691517 L213.922379,67.3113769 C213.922379,60.2586002 208.144962,53.8138028 201.836712,53.8138028 L170.505629,53.8138028 L50.7620875,53.8138028 C44.4532958,53.8138028 38.6764208,60.2586002 38.6764208,67.3113769 L38.6764208,168.691517 Z" id="Stroke-3" stroke="#425765" stroke-width="4" stroke-linecap="round" stroke-linejoin="round" stroke-dasharray="0.8,0.8"></path>
                <path d="M66.8996917,86.2324951 L116.958358,116.535463 C122.659942,119.986464 129.839733,119.830808 135.386942,116.135748 C155.711032,102.596591 170.9541,92.4422233 181.116146,85.6726449" id="Stroke-7" stroke="#425765" stroke-width="4" stroke-linecap="round" stroke-linejoin="round" stroke-dasharray="0.8,0.8"></path>
                <path d="M53,166 L99.1582031,121.886719" id="Stroke-2" stroke="#425765" stroke-width="4" stroke-linecap="round" stroke-linejoin="round" stroke-dasharray="1,1"></path>
                <path d="M151,166.113281 L197.158203,122" id="Stroke-2" stroke="#425765" stroke-width="4" stroke-linecap="round" stroke-linejoin="round" stroke-dasharray="1,1" transform="translate(174.079102, 144.056641) scale(-1, 1) translate(-174.079102, -144.056641) "></path>
                <g id="dot" transform="translate(55.000000, 78.000000)">
                    <mask id="mask-2" fill="white">
                        <use xlink:href="#path-1"></use>
                    </mask>
                    <use id="Mask" fill="#425765" fill-rule="evenodd" xlink:href="#path-1"></use>
                </g>
                <mask id="mask-4" fill="white">
                    <use xlink:href="#path-3"></use>
                </mask>
                <use id="Mask" fill="#9468F8" xlink:href="#path-3"></use>
                <circle id="Oval" stroke="#425765" stroke-width="4" stroke-linecap="round" stroke-linejoin="round" stroke-dasharray="0.7,0.7" cx="209.5" cy="60.5" r="28.5"></circle>
                <path d="M222.490829,63.7492806 L221.724428,63.7492806 C221.593373,63.7492806 221.464618,63.7355147 221.341227,63.711042 C221.217837,63.7355147 221.089081,63.7492806 220.958027,63.7492806 L220.191626,63.7492806 C220.060571,63.7492806 219.931816,63.7355147 219.808425,63.711042 C219.685035,63.7355147 219.556279,63.7492806 219.425225,63.7492806 L218.658824,63.7492806 C218.527769,63.7492806 218.399014,63.7355147 218.275623,63.711042 C218.152233,63.7355147 218.023477,63.7492806 217.892423,63.7492806 L217.126022,63.7492806 C216.994967,63.7492806 216.866212,63.7355147 216.742821,63.711042 C216.619431,63.7355147 216.490675,63.7492806 216.359621,63.7492806 L215.59322,63.7492806 C215.462165,63.7492806 215.33341,63.7355147 215.210019,63.711042 C215.086629,63.7355147 214.957873,63.7492806 214.826819,63.7492806 L214.060418,63.7492806 C213.929363,63.7492806 213.800608,63.7355147 213.677217,63.711042 C213.553827,63.7355147 213.425072,63.7492806 213.294017,63.7492806 L212.527616,63.7492806 C212.396561,63.7492806 212.267806,63.7355147 212.144415,63.711042 C212.021025,63.7355147 211.89227,63.7492806 211.761215,63.7492806 L210.994814,63.7492806 C210.863759,63.7492806 210.735004,63.7355147 210.611614,63.711042 C210.488223,63.7355147 210.359468,63.7492806 210.228413,63.7492806 L209.462012,63.7492806 C209.330957,63.7492806 209.202202,63.7355147 209.078812,63.711042 C208.955421,63.7355147 208.826666,63.7492806 208.695611,63.7492806 L207.92921,63.7492806 C207.798156,63.7492806 207.6694,63.7355147 207.54601,63.711042 C207.422619,63.7355147 207.293864,63.7492806 207.162809,63.7492806 L206.396408,63.7492806 C206.265354,63.7492806 206.136598,63.7355147 206.013208,63.711042 C205.889817,63.7355147 205.761062,63.7492806 205.630007,63.7492806 L204.863606,63.7492806 C204.732552,63.7492806 204.603796,63.7355147 204.480406,63.711042 C204.357015,63.7355147 204.22826,63.7492806 204.097205,63.7492806 L203.330804,63.7492806 C203.19975,63.7492806 203.070994,63.7355147 202.947604,63.711042 C202.824213,63.7355147 202.695458,63.7492806 202.564403,63.7492806 L201.798002,63.7492806 C201.666948,63.7492806 201.538192,63.7355147 201.414802,63.711042 C201.291411,63.7355147 201.162656,63.7492806 201.031601,63.7492806 L200.2652,63.7492806 C200.134146,63.7492806 200.00539,63.7355147 199.882,63.711042 C199.758609,63.7355147 199.629854,63.7492806 199.498799,63.7492806 L198.732398,63.7492806 C198.601344,63.7492806 198.472588,63.7355147 198.349198,63.711042 C198.225807,63.7355147 198.097052,63.7492806 197.965997,63.7492806 L197.55444,63.7492806 C196.49604,63.7492806 195.638438,62.8935012 195.638438,61.8373515 C195.638438,60.7812019 196.49604,59.9254224 197.55444,59.9254224 L197.965997,59.9254224 C198.097052,59.9254224 198.225807,59.9391883 198.349198,59.963661 C198.472588,59.9391883 198.601344,59.9254224 198.732398,59.9254224 L199.498799,59.9254224 C199.629854,59.9254224 199.758609,59.9391883 199.882,59.963661 C200.00539,59.9391883 200.134146,59.9254224 200.2652,59.9254224 L201.031601,59.9254224 C201.162656,59.9254224 201.291411,59.9391883 201.414802,59.963661 C201.538192,59.9391883 201.666948,59.9254224 201.798002,59.9254224 L202.564403,59.9254224 C202.695458,59.9254224 202.824213,59.9391883 202.947604,59.963661 C203.070994,59.9391883 203.19975,59.9254224 203.330804,59.9254224 L204.097205,59.9254224 C204.22826,59.9254224 204.357015,59.9391883 204.480406,59.963661 C204.603796,59.9391883 204.732552,59.9254224 204.863606,59.9254224 L205.630007,59.9254224 C205.761062,59.9254224 205.889817,59.9391883 206.013208,59.963661 C206.136598,59.9391883 206.265354,59.9254224 206.396408,59.9254224 L207.162809,59.9254224 C207.293864,59.9254224 207.422619,59.9391883 207.54601,59.963661 C207.6694,59.9391883 207.798156,59.9254224 207.92921,59.9254224 L208.695611,59.9254224 C208.826666,59.9254224 208.955421,59.9391883 209.078812,59.963661 C209.202202,59.9391883 209.330957,59.9254224 209.462012,59.9254224 L210.228413,59.9254224 C210.359468,59.9254224 210.488223,59.9391883 210.611614,59.963661 C210.735004,59.9391883 210.863759,59.9254224 210.994814,59.9254224 L211.761215,59.9254224 C211.89227,59.9254224 212.021025,59.9391883 212.144415,59.963661 C212.267806,59.9391883 212.396561,59.9254224 212.527616,59.9254224 L213.294017,59.9254224 C213.425072,59.9254224 213.553827,59.9391883 213.677217,59.963661 C213.800608,59.9391883 213.929363,59.9254224 214.060418,59.9254224 L214.826819,59.9254224 C214.957873,59.9254224 215.086629,59.9391883 215.210019,59.963661 C215.33341,59.9391883 215.462165,59.9254224 215.59322,59.9254224 L216.359621,59.9254224 C216.490675,59.9254224 216.619431,59.9391883 216.742821,59.963661 C216.866212,59.9391883 216.994967,59.9254224 217.126022,59.9254224 L217.892423,59.9254224 C218.023477,59.9254224 218.152233,59.9391883 218.275623,59.963661 C218.399014,59.9391883 218.527769,59.9254224 218.658824,59.9254224 L219.425225,59.9254224 C219.556279,59.9254224 219.685035,59.9391883 219.808425,59.963661 C219.931816,59.9391883 220.060571,59.9254224 220.191626,59.9254224 L220.958027,59.9254224 C221.089081,59.9254224 221.217837,59.9391883 221.341227,59.963661 C221.464618,59.9391883 221.593373,59.9254224 221.724428,59.9254224 L222.490829,59.9254224 C223.549228,59.9254224 224.406831,60.7812019 224.406831,61.8373515 C224.406831,62.8935012 223.549228,63.7492806 222.490829,63.7492806" id="Fill-39" fill="#FFFFFF"></path>
                <path d="M210.095213,75.4307086 C209.586322,75.4307086 209.078965,75.2295736 208.701896,74.8311276 C207.975347,74.0632969 208.010602,72.8526634 208.780068,72.1284246 L209.338008,71.6030265 C209.433042,71.5135482 209.534973,71.4355415 209.641503,71.3690064 C209.714311,71.266527 209.797849,71.169401 209.893649,71.0791579 L210.451589,70.552995 C210.546623,70.4635168 210.64932,70.3847453 210.75585,70.3182101 C210.828658,70.2157307 210.912962,70.11784 211.008763,70.0275969 L211.566702,69.5021988 C211.661736,69.4127205 211.763667,69.3347138 211.870197,69.2681787 C211.943005,69.1656993 212.027309,69.0678085 212.12311,68.9775655 L212.681049,68.4521673 C212.776083,68.3626891 212.878015,68.2846824 212.985311,68.2181472 C213.057352,68.1156678 213.142423,68.0177771 213.238223,67.9267692 L213.795396,67.4021359 C213.89043,67.3126576 213.992362,67.2346509 214.099658,67.1681158 C214.171699,67.0656364 214.25677,66.9677456 214.35257,66.8767378 L214.909744,66.3521044 C215.004777,66.2626261 215.106709,66.1846194 215.214005,66.1180843 C215.286046,66.0148401 215.371117,65.9177141 215.466917,65.8267063 L216.024091,65.302073 C216.119124,65.2125947 216.221056,65.134588 216.328352,65.0680528 C216.40116,64.9648087 216.484698,64.8676827 216.580498,64.7774396 L217.137671,64.2520415 C217.232705,64.1625632 217.335403,64.0837917 217.442699,64.0172566 C217.515507,63.9140124 217.599811,63.8161217 217.695611,63.7258786 L218.253551,63.2012453 C218.348585,63.111767 218.44975,63.0337603 218.557046,62.9672251 C218.629854,62.863981 218.713392,62.766855 218.809192,62.6766119 L219.366365,62.1519786 C219.462165,62.0617355 219.564097,61.982964 219.672159,61.9164289 C219.687487,61.8957801 219.702049,61.8743665 219.718143,61.8537176 L219.640737,61.7810643 C219.545703,61.691586 219.462165,61.59446 219.389357,61.4912159 C219.280528,61.4246807 219.178597,61.3459093 219.08203,61.2549014 L218.524857,60.7287385 C218.43059,60.640025 218.347052,60.542899 218.27501,60.4404196 C218.166948,60.3746493 218.06425,60.2958778 217.96845,60.2056347 L217.412043,59.6802366 C217.317009,59.5907583 217.232705,59.4936323 217.160663,59.3903882 C217.052601,59.323853 216.949903,59.2458463 216.854103,59.1556033 L216.297696,58.6302052 C216.202662,58.5407269 216.118358,58.4436009 216.046316,58.3403567 C215.938254,58.2738216 215.835556,58.1958149 215.739756,58.1055718 L215.183349,57.5801737 C215.088315,57.4906954 215.004011,57.3935694 214.931969,57.2903253 C214.823907,57.2237901 214.721209,57.1457834 214.625409,57.0555404 L214.069002,56.5301422 C213.973968,56.440664 213.889664,56.343538 213.816856,56.2402938 C213.70956,56.1737587 213.606862,56.0957519 213.511062,56.0055089 L212.953888,55.4801108 C212.858854,55.3906325 212.775317,55.2935065 212.702509,55.1902623 C212.594446,55.1229624 212.491748,55.0449557 212.395182,54.9539479 L211.838008,54.427785 C211.743741,54.3390715 211.660203,54.2419455 211.588162,54.1394661 C211.480866,54.072931 211.378168,53.9949243 211.282368,53.9046812 L210.725194,53.3792831 C210.63016,53.2898048 210.546623,53.1926788 210.473815,53.0894346 C210.366518,53.0228995 210.263821,52.9448928 210.168021,52.853885 L209.610847,52.3292516 C209.515813,52.2397733 209.432276,52.1426473 209.359468,52.0394032 C209.251405,51.972868 209.149474,51.8948613 209.053674,51.8038535 L208.4965,51.2792202 C207.727034,50.5542166 207.692545,49.3435831 208.419094,48.5765172 C209.147175,47.8079217 210.358854,47.7750365 211.128321,48.4992752 L211.684728,49.0246734 C211.779762,49.1141516 211.864066,49.2112776 211.936108,49.3145218 C212.04417,49.3802922 212.146868,49.4590637 212.242668,49.5493067 L212.799075,50.0747048 C212.894109,50.1641831 212.978413,50.2613091 213.050455,50.3645533 C213.158517,50.4310884 213.261215,50.5090951 213.357015,50.5993382 L213.913422,51.1247363 C214.008456,51.2142146 214.09276,51.3113406 214.165568,51.4145847 C214.273631,51.4818846 214.376328,51.5598913 214.472895,51.6508992 L215.029302,52.1770621 C215.124336,52.2657756 215.207873,52.3629016 215.279915,52.465381 C215.387211,52.5319161 215.489909,52.6099228 215.585709,52.7001659 L216.142883,53.225564 C216.237916,53.3150423 216.321454,53.4121683 216.394262,53.5154124 C216.501558,53.5819476 216.604256,53.6599543 216.700056,53.7501973 L217.25723,54.2755954 C217.352263,54.3650737 217.435801,54.4621997 217.508609,54.5654439 C217.615905,54.631979 217.718603,54.7099857 217.814403,54.8002288 L218.371577,55.3256269 C218.46661,55.4151052 218.550148,55.5122312 218.622956,55.6154754 C218.731019,55.6820105 218.83295,55.7600172 218.92875,55.8502603 L219.485924,56.3756584 C219.580957,56.4651367 219.664495,56.5622626 219.737303,56.6655068 C219.845366,56.732042 219.947297,56.8100487 220.043097,56.9010565 L220.600271,57.4256898 C220.695305,57.5151681 220.778842,57.6122941 220.85165,57.7155383 C220.960479,57.7828382 221.063177,57.8608449 221.159744,57.9526175 L221.716151,58.4780156 C221.810418,58.5667291 221.894722,58.6638551 221.965997,58.7663345 C222.07406,58.8328696 222.176758,58.9108764 222.272558,59.0018842 L222.828965,59.5265175 C222.923999,59.6159958 223.008303,59.7131218 223.080344,59.816366 C223.188407,59.8829011 223.291105,59.9609078 223.386905,60.0519156 L223.806892,60.4473026 C224.190093,60.8090396 224.406984,61.3114945 224.406984,61.8376574 C224.406984,62.3630555 224.190093,62.8655105 223.807659,63.2264827 L223.670473,63.3557291 C223.574673,63.4459722 223.471209,63.5255084 223.363146,63.5920436 C223.291105,63.694523 223.206801,63.791649 223.111767,63.8811272 L222.55536,64.4065254 C222.45956,64.4967684 222.356862,64.5755399 222.248799,64.642075 C222.176758,64.7445544 222.092454,64.8416804 221.99742,64.9311587 L221.441013,65.4565568 C221.345979,65.5460351 221.243281,65.6248066 221.135985,65.6913417 C221.063943,65.7938211 220.978873,65.8917119 220.883073,65.9827197 L220.325899,66.5073531 C220.230866,66.5968313 220.128934,66.6748381 220.021638,66.7413732 C219.94883,66.8438526 219.865292,66.9409786 219.769492,67.0319864 L219.212319,67.5573845 C219.116518,67.6468628 219.014587,67.7256343 218.907291,67.7921694 C218.834483,67.8946488 218.750179,67.9925396 218.654379,68.0835474 L218.096439,68.6081808 C218.001405,68.697659 217.90024,68.7756657 217.792944,68.8422009 C217.720136,68.9454451 217.635832,69.042571 217.540032,69.1335789 L216.982092,69.6582122 C216.887058,69.7476905 216.785127,69.8256972 216.678597,69.8922323 C216.605789,69.9954765 216.521485,70.0933673 216.425685,70.1836103 L215.867745,70.7082437 C215.772711,70.797722 215.67078,70.8757287 215.56425,70.9422638 C215.491442,71.045508 215.407138,71.1433987 215.311338,71.2336418 L214.753398,71.7582751 C214.658364,71.8477534 214.556433,71.9257601 214.449903,71.9922953 C214.377095,72.0955394 214.292791,72.1934302 214.196991,72.2836733 L213.639051,72.8083066 C213.544017,72.8977849 213.442086,72.9757916 213.335556,73.0423267 C213.262748,73.1455709 213.178444,73.2426969 213.082644,73.33294 L212.52547,73.8583381 C212.430436,73.9485811 212.327739,74.0265878 212.220442,74.093123 C212.148401,74.1963671 212.06333,74.2942579 211.96753,74.384501 L211.410357,74.9091343 C211.039419,75.2578702 210.567316,75.4307086 210.095213,75.4307086" id="Fill-41" fill="#FFFFFF"></path>
                <path d="M190.857322,59.4862141 C192.158671,59.4862141 193.214005,60.5385398 193.214005,61.8371221 C193.214005,63.1357043 192.158671,64.1887949 190.857322,64.1887949 C189.555973,64.1887949 188.501405,63.1357043 188.501405,61.8371221 C188.501405,60.5385398 189.555973,59.4862141 190.857322,59.4862141" id="Fill-43" fill="#FFFFFF"></path>
                <mask id="mask-6" fill="white">
                    <use xlink:href="#path-5"></use>
                </mask>
                <g id="Clip-21"></g>
            </g>
        </g>
    </g>
</svg>