<?xml version="1.0" encoding="UTF-8"?>
<svg width="486px" height="252px" viewBox="0 0 486 252" version="1.1" xmlns="http://www.w3.org/2000/svg" xmlns:xlink="http://www.w3.org/1999/xlink">
    <!-- Generator: Sketch 50.1 (55044) - http://www.bohemiancoding.com/sketch -->
    <title>logo/dhealth/logomark/00</title>
    <desc>Created with Sketch.</desc>
    <defs>
        <polygon id="path-1" points="0 243.001157 0 486 486 486 486 243.001157 486 0.00231428571 0 0.00231428571"></polygon>
    </defs>
    <g id="Page-1" stroke="none" stroke-width="1" fill="none" fill-rule="evenodd" opacity="0.0599999987">
        <g id="Auth0-Email-Mockup" transform="translate(-395.000000, -371.000000)">
            <g id="Group" transform="translate(370.000000, 282.000000)">
                <g id="logo/dhealth/logomark/00" transform="translate(0.000000, 89.000000)">
                    <g id="logo/gdm/logomark/00" transform="translate(25.000000, -111.000000)">
                        <g id="main-logo">
                            <path d="M416.571429,312.430886 C416.571429,328.399457 429.519857,341.359457 445.5,341.359457 C461.480143,341.359457 474.428571,328.399457 474.428571,312.430886 C474.428571,296.450743 461.480143,283.502314 445.5,283.502314 C429.519857,283.502314 416.571429,296.450743 416.571429,312.430886" id="Fill-1" fill="#FFFFFF"></path>
                            <path d="M381.857143,376.073743 C381.857143,392.042314 394.805571,405.002314 410.785714,405.002314 C426.765857,405.002314 439.714286,392.042314 439.714286,376.073743 C439.714286,360.0936 426.765857,347.145171 410.785714,347.145171 C394.805571,347.145171 381.857143,360.0936 381.857143,376.073743" id="Fill-3" fill="#FFFFFF"></path>
                            <g id="Group-7">
                                <mask id="mask-2" fill="white">
                                    <use xlink:href="#path-1"></use>
                                </mask>
                                <g id="Clip-6"></g>
                                <path d="M243,486.002314 C109.014429,486.002314 0,376.987886 0,243.002314 C0,109.005171 109.014429,0.00231428571 243,0.00231428571 C376.985571,0.00231428571 486,109.005171 486,243.002314 C486,258.970886 473.051571,271.930886 457.071429,271.930886 C441.091286,271.930886 428.142857,258.970886 428.142857,243.002314 C428.142857,140.9076 345.083143,57.8594571 243,57.8594571 C140.916857,57.8594571 57.8571429,140.9076 57.8571429,243.002314 C57.8571429,345.085457 140.916857,428.145171 243,428.145171 C278.651571,428.145171 313.238571,417.997029 343.058143,398.8116 C356.504143,390.156171 374.393571,394.044171 383.049,407.467029 C391.692857,420.913029 387.816429,438.802457 374.382,447.457886 C335.201143,472.672029 289.771714,486.002314 243,486.002314" id="Fill-5" fill="#FFFFFF" mask="url(#mask-2)"></path>
                            </g>
                            <path d="M337.425171,214.780757 C342.886886,229.7889 359.491886,237.530186 374.500029,232.068471 C389.508171,226.606757 397.249457,210.001757 391.787743,194.993614 C386.326029,179.9739 369.7326,172.232614 354.712886,177.694329 C339.704743,183.167614 331.963457,199.761043 337.425171,214.780757" id="Fill-8" fill="#FFFFFF" opacity="0.5"></path>
                            <path d="M296.5572,389.8206 C279.558771,396.011314 261.437914,399.2166 242.807914,399.205029 C201.081343,399.1356 161.877343,382.831457 132.404914,353.2896 C102.944057,323.747743 86.7440571,284.497457 86.8019143,242.770886 C86.8597714,201.044314 103.163914,161.840314 132.705771,132.367886 C190.2042,75.0314571 280.553914,70.9351714 342.877629,122.8446 C355.154914,133.073743 356.8212,151.310314 346.592057,163.5876 C336.386057,175.864886 318.137914,177.531171 305.860629,167.302029 C266.645057,134.635886 209.771486,137.239457 173.564486,173.342314 C154.957629,191.891314 144.693771,216.573171 144.670629,242.851886 C144.624343,269.119029 154.818771,293.8356 173.367771,312.442457 C191.928343,331.037743 216.6102,341.3016 242.888914,341.336314 C269.156057,341.371029 293.872629,331.1766 312.467914,312.6276 C324.247629,300.8826 332.891486,286.314171 337.485343,270.484457 C341.928771,255.129171 357.978343,246.300171 373.322057,250.7436 C388.665771,255.187029 397.494771,271.2366 393.051343,286.580314 C385.749771,311.794457 372.014486,334.960457 353.326629,353.590457 C336.9762,369.906171 317.640343,382.148743 296.5572,389.8206" id="Fill-10" fill="#FFFFFF" opacity="0.5"></path>
                        </g>
                    </g>
                </g>
            </g>
        </g>
    </g>
</svg>