<?xml version="1.0" encoding="UTF-8"?>
<svg width="224px" height="224px" viewBox="0 0 224 224" version="1.1" xmlns="http://www.w3.org/2000/svg" xmlns:xlink="http://www.w3.org/1999/xlink">
    <!-- Generator: Sketch 48.2 (47327) - http://www.bohemiancoding.com/sketch -->
    <title>Group</title>
    <desc>Created with Sketch.</desc>
    <defs>
        <path d="M91.0741116,78.1057511 L87.6179198,75.2315737 C87.2919946,74.9605335 87.0282495,74.6424558 86.828349,74.2954465 C85.9095556,72.8429775 86.1886972,70.8992091 87.5456423,69.7707702 L99.3382608,59.9640004 C100.813426,58.7372494 103.003762,58.938629 104.230513,60.4137942 C105.457264,61.8889594 105.255884,64.0792952 103.780719,65.3060462 L98.6728851,69.553733 C109.693776,65.7728539 121.956031,66.4896891 132.685688,71.9737057 C153.966594,82.8521541 162.325583,108.784567 151.339822,129.886609 C140.366655,150.974172 114.237647,159.245131 92.9770557,148.375364 C77.3236469,140.373599 68.433112,123.566635 70.0003112,106.153691 C70.1722939,104.242813 71.8607856,102.833161 73.771663,103.005143 C75.6825403,103.177126 77.0921929,104.865618 76.9202102,106.776495 C75.6029216,121.412715 83.0549908,135.500355 96.1396594,142.189022 C114.008454,151.324687 135.96935,144.373116 145.176772,126.678853 C154.377696,109.005222 147.376993,87.2866713 129.523465,78.1602422 C120.190614,73.3901448 109.481706,72.9093708 99.9714733,76.4684138 L103.852996,79.6962978 C105.328162,80.9230487 105.529541,83.1133845 104.30279,84.5885497 C103.076039,86.0637149 100.885703,86.2650945 99.4105383,85.0383435 L91.5026866,78.4621551 C91.3515669,78.3558758 91.2081226,78.2369035 91.0741117,78.1057512 Z M76.0636618,96.2378308 C73.6073654,95.0223079 72.6000358,92.0455171 73.8108162,89.5896648 C75.0265589,87.1338124 78.0038878,86.1266648 80.4601842,87.3372264 C82.9164806,88.5527493 83.9238102,91.5295401 82.7080675,93.9853924 C81.4972871,96.4412448 78.5199582,97.4483923 76.0636618,96.2378308 Z" id="path-1"></path>
    </defs>
    <g id="patient-profile/loading_screen" stroke="none" stroke-width="1" fill="none" fill-rule="evenodd" transform="translate(-608.000000, -438.000000)">
        <g id="Group" transform="translate(608.000000, 438.000000)">
            <path d="M9.43791008,65.1726003 C10.6545281,62.993759 13.4074208,62.2144338 15.5858929,63.431258 C17.764365,64.648563 18.5440388,67.4019223 17.3269401,69.5807636 C16.1098414,71.759605 13.3574294,72.5389302 11.1789573,71.3221059 C9.00048519,70.1048009 8.22081137,67.3514416 9.43791008,65.1726003" id="dot" fill="#EFF0F0"></path>
            <path d="M181.46991,153.8766 C182.686528,151.697759 185.439421,150.918434 187.617893,152.135258 C189.796365,153.352563 190.576039,156.105922 189.35894,158.284764 C188.141841,160.463605 185.389429,161.24293 183.210957,160.026106 C181.032485,158.808801 180.252811,156.055442 181.46991,153.8766" id="dot" fill="#EFF0F0"></path>
            <path d="M89.0920947,221.211601 C59.8697085,215.154884 34.7543093,198.07896 18.3729874,173.129015 C1.99118485,148.17907 -3.69533876,118.342117 2.36083291,89.1142971 C2.68385437,87.5546852 4.20811188,86.5518028 5.77034364,86.8753598 C7.32969128,87.198436 8.33240373,88.7253557 8.00890158,90.2854484 C2.26565695,118.003656 7.65848098,146.300228 23.1947557,169.961715 C38.730069,193.623681 62.5490561,209.818357 90.2630475,215.562575 C97.4925754,217.06113 104.764404,217.801513 111.980472,217.801513 C132.425039,217.802474 152.439391,211.859699 169.925811,200.374628 C193.583288,184.836682 209.7757,161.013657 215.518945,133.294969 C221.261708,105.57628 215.869365,77.2801887 200.33309,53.6182218 C184.797296,29.9562549 160.97879,13.7620599 133.264799,8.01784187 C105.551288,2.27410457 77.2599917,7.66736187 53.6010733,23.2057891 C42.3001291,30.6288496 32.6532278,39.9831558 24.9300346,51.0081314 C23.858584,52.537455 22.8164552,54.1124515 21.8329703,55.6908134 C20.9903265,57.0427335 19.2108243,57.4557133 17.859614,56.6119652 C16.5074424,55.7686978 16.0954939,53.9898556 16.9386183,52.6379355 C17.9769016,50.9730353 19.0757514,49.3110198 20.2058458,47.6980426 C28.3496398,36.071626 38.5204896,26.208667 50.43479,18.3832036 C75.3809874,1.99958595 105.213846,-3.68790148 134.435271,2.3688159 C163.657657,8.42505251 188.773056,25.5014571 205.154859,50.4514019 C221.536661,75.4013467 227.223185,105.237819 221.167013,134.465639 C215.110841,163.692978 198.037811,188.812634 173.092095,205.196733 C154.655357,217.306321 133.547923,223.572173 111.992009,223.572654 C104.381777,223.573134 96.7172278,222.791886 89.0920947,221.211601 Z" id="outer-ring" fill="#EFF0F0"></path>
            <path d="M111.823059,200.534584 C101.70172,200.534584 91.5500979,198.786031 81.7397631,195.270654 C35.5327931,178.712037 11.4095313,127.642919 27.9653425,81.4285979 C44.520673,35.214277 95.5825785,11.0869265 141.788106,27.645063 C187.994596,44.2031994 212.117377,95.272798 195.562527,141.487119 C195.025119,142.987116 193.372038,143.766441 191.874699,143.229904 C190.374956,142.691924 189.595282,141.040966 190.132209,139.54145 C205.614647,96.3213534 183.054579,48.5618436 139.842767,33.076301 C118.909823,25.5743945 96.3093768,26.6748728 76.2036944,36.1753326 C56.0984927,45.6757923 40.8953339,62.4377745 33.3956601,83.3742667 C17.9132223,126.593883 40.4723296,174.353873 83.6851021,189.839416 C104.618046,197.340842 127.219454,196.239402 147.323694,186.739903 C156.929737,182.200971 165.4576,175.97935 172.671746,168.246675 C173.669652,167.176966 174.653136,166.06543 175.59384,164.942356 C176.617703,163.722166 178.436621,163.562551 179.657085,164.584664 C180.877548,165.608219 181.037617,167.427446 180.014716,168.648597 C179.008639,169.849556 177.956896,171.038015 176.88881,172.182724 C169.17475,180.451456 160.056604,187.103845 149.787694,191.955757 C137.711883,197.661995 124.793428,200.534584 111.823059,200.534584" id="inner-ring" fill="#EFF0F0"></path>
            <mask id="mask-2" fill="white">
                <use xlink:href="#path-1"></use>
            </mask>
            <use id="Mask" fill="#EFF0F0" fill-rule="nonzero" xlink:href="#path-1"></use>
        </g>
    </g>
</svg>