<svg xmlns="http://www.w3.org/2000/svg" xmlns:xlink="http://www.w3.org/1999/xlink" width="288" height="288" viewBox="0 0 288 288">
  <defs>
    <path id="no-patients-a" d="M27.0993477,3.00255008 C28.2024642,3.05743207 29.0522093,3.99634844 28.9974997,5.09951595 C28.9424021,6.20228862 28.0038024,7.05236723 26.9002978,6.99748524 C25.7975693,6.94260325 24.9474363,6.00368688 25.0025339,4.90051937 C25.0572435,3.79735187 25.9962312,2.94727326 27.0993477,3.00255008"/>
  </defs>
  <g fill="none" fill-rule="evenodd">
    <g transform="translate(66 42)">
      <path fill="#E6EBEB" d="M73.8862668,96.9516225 C91.9230581,96.9516225 114.691753,98.1214818 123.613904,88.9556124 C129.092235,83.3276347 129.581221,71.4643403 128.586668,58.9705745 C125.97877,26.209644 102.997912,0 73.8862668,0 C44.774622,0 20.1804183,26.1260209 20.1804183,58.9705745 C20.1804183,73.1540417 18.3809862,83.3944957 26.1477348,88.9556124 C36.3663905,96.272334 57.346084,96.9516225 73.8862668,96.9516225 Z"/>
      <path fill="#FFF" d="M127.194149,112.829772 C113.712904,101.098232 96.0148193,94.0433255 76.4799541,94.0433255 C36.7656961,94.0433255 4.64204675,123.202298 0.112079779,161.538532 C-0.475650345,166.516188 3.48486046,170.878071 8.53291895,170.878071 L76.4799541,190.029274 L144.427483,170.878071 C149.475542,170.878071 153.436052,166.516188 152.847828,161.538532 C151.20416,147.629237 145.928911,134.927955 137.975787,124.389719"/>
      <path fill="#E6EBEB" d="M128,182 C133.061202,182 152.047162,168.074449 151.703521,166.181972 C145.137413,130.02153 117.357357,98.7314453 79.5273437,98.7314453 C43.7689413,98.7314453 11.3097969,126.687712 1.78207479,160.288323 C0.702441798,164.095774 15.9387985,179 21,179 C45.133538,190.648604 63.4668713,196.648604 76,197 C87.2446491,197.315271 104.577982,192.315271 128,182 Z"/>
      <path fill="#48CEC1" d="M107,133 C108.401294,134.154196 111.165046,133.507544 112,132 L122,114 C110.26709,105.72168 101.755257,99.6107824 78.9570312,99 C56.1588057,98.3892176 36,113 36,113 L46,133.262834 C46.8585743,134.704903 49.6146357,135.114695 51,134 L78.9570312,111 L107,133 Z"/>
      <path stroke="#425765" stroke-dasharray="1 1" stroke-linecap="round" stroke-linejoin="round" stroke-width="4" d="M127.875925,112.244698 C114.362225,100.458842 96.6215325,93.3712724 77.0396383,93.3712724 C37.2297707,93.3712724 5.02878564,122.665248 0.487913048,161.178974 M153.591364,161.178974 C151.943738,147.205281 146.65579,134.445192 138.683518,123.858166"/>
      <path fill="#425765" d="M133.640023,115.5339 C135.294698,115.616223 136.569315,117.024597 136.487251,118.679349 C136.404605,120.333508 134.996705,121.608625 133.341448,121.526302 C131.687355,121.443979 130.412156,120.035605 130.494802,118.380854 C130.576867,116.726102 131.985348,115.450985 133.640023,115.5339"/>
      <path stroke="#425765" stroke-linecap="round" stroke-width="2" d="M36,108 L46.2796403,126.846007 C47.0730285,128.300552 48.8953384,128.836526 50.3498834,128.043138 C50.5074095,127.957214 50.6569091,127.857331 50.7965844,127.74469 L79,105 L107.328955,126.932094 C108.639069,127.946376 110.523364,127.706557 111.537646,126.396443 C111.61014,126.302804 111.677026,126.204956 111.737954,126.103411 L122,109"/>
    </g>
    <g fill="#EFF0F0" transform="translate(19 19.009)">
      <path d="M10.5333818 73.0194273C11.8912144 70.5779578 14.9636393 69.704696 17.3949698 71.0681911 19.8263002 72.4322248 20.6964719 75.5174622 19.3381028 77.9589317 17.9797337 80.4004013 14.9078453 81.273663 12.4765148 79.910168 10.0451844 78.5461343 9.17501269 75.4608968 10.5333818 73.0194273M202.533382 172.415427C203.891214 169.973958 206.963639 169.100696 209.39497 170.464191 211.8263 171.828225 212.696472 174.913462 211.338103 177.354932 209.979734 179.796401 206.907845 180.669663 204.476515 179.306168 202.045184 177.942134 201.175013 174.856897 202.533382 172.415427"/>
      <path d="M99.4331414,247.866701 C66.818871,241.079932 38.7882916,221.94575 20.5055663,193.988446 C2.22230452,166.031142 -4.12426201,132.59777 2.63485816,99.8469537 C2.99537319,98.0993528 4.69655344,96.9755873 6.44011567,97.3381444 C8.18045902,97.7001628 9.29955773,99.4111309 8.93850623,101.15927 C2.52863499,132.218512 8.54741181,163.925832 25.8870041,190.439372 C43.2255234,216.953451 69.8092144,235.100164 100.740008,241.536765 C108.808678,243.215949 116.924558,244.045575 124.978206,244.045575 C147.795802,244.046652 170.133249,237.38756 189.649343,224.518128 C216.052777,207.107304 234.124665,180.412755 240.534536,149.352974 C246.943871,118.293193 240.925631,86.5864125 223.586038,60.0723335 C206.246983,33.5582545 179.663828,15.4120807 148.733034,8.97547924 C117.802777,2.53941646 86.2276693,8.58275389 59.8226264,25.9941165 C47.2099655,34.3119209 36.4433346,44.7937551 27.8236994,57.147634 C26.6278839,58.8612957 25.4647938,60.6261355 24.3671543,62.3947464 C23.4267037,63.9096212 21.4406522,64.3723798 19.9326049,63.4269299 C18.4234848,62.4820187 17.9637208,60.4887625 18.9047079,58.9738877 C20.0635062,57.1083076 21.2899011,55.2459599 22.5511672,53.4385613 C31.640223,40.4107463 42.9916178,29.3589485 56.2888281,20.5902372 C84.1305663,2.23180854 117.426167,-4.14122424 150.039365,2.64554389 C182.653635,9.4317733 210.684214,28.5664945 228.967476,56.5237987 C247.250738,84.481103 253.597305,117.913936 246.838184,150.664752 C240.079064,183.41503 221.024343,211.562501 193.183141,229.921469 C172.606425,243.490695 149.049021,250.511806 124.991081,250.512344 C116.497519,250.512883 107.943335,249.637466 99.4331414,247.866701 Z"/>
      <path d="M124.802521,224.697365 C113.506384,224.697365 102.176448,222.738048 91.2274142,218.798943 C39.6571352,200.244421 12.7338519,143.01965 31.2113197,91.2348532 C49.6882511,39.4500561 106.676985,12.4144982 158.245655,30.9684815 C209.815397,49.5224647 236.738144,106.747774 218.261749,158.532571 C217.661964,160.213371 215.817006,161.086633 214.145869,160.485423 C212.472049,159.882598 211.601878,158.032641 212.201127,156.35238 C229.480633,107.922718 204.301985,54.4064812 156.074517,37.0543776 C132.711856,28.6482235 107.488144,29.8813487 85.0487661,40.5269532 C62.6099249,51.1725577 45.6421137,69.9549573 37.2719421,93.4150445 C19.9924356,141.844168 45.1700107,195.360943 93.3985515,212.713047 C116.761212,221.118662 141.985998,219.884459 164.423766,209.239932 C175.144796,204.153896 184.6625,197.182348 192.714002,188.517609 C193.827736,187.318962 194.925376,186.073446 195.975268,184.815001 C197.117972,183.447735 199.148015,183.268881 200.510139,184.414195 C201.872264,185.561126 202.050912,187.599634 200.909281,188.967978 C199.786427,190.313695 198.612607,191.645406 197.420547,192.928093 C188.811105,202.193502 178.634603,209.647742 167.173766,215.084483 C153.696298,221.478525 139.27838,224.697365 124.802521,224.697365"/>
    </g>
    <g transform="translate(92 36)">
      <path fill="#FFF" d="M53.8862668,96.9516225 C71.9230581,96.9516225 94.6917533,98.1214818 103.613904,88.9556124 C109.092235,83.3276347 109.581221,71.4643403 108.586668,58.9705745 C105.97877,26.209644 82.9979116,0 53.8862668,0 C24.774622,0 0.180418337,26.1260209 0.180418337,58.9705745 C0.180418337,73.1540417 -1.61901377,83.3944957 6.14773483,88.9556124 C16.3663905,96.272334 37.346084,96.9516225 53.8862668,96.9516225 Z"/>
      <path fill="#E6EBEB" d="M50,96 C68.0367913,96 87,96 98,92 C103.478331,86.3720223 103.581221,77.4643403 102.586668,64.9705745 C99.9787695,32.209644 76.9979116,6 47.8862668,6 C18.774622,6 2,32.1260209 2,64.9705745 C2,79.1540417 1.23325139,83.4388833 9,89 C19.2186557,96.3167216 33.4598172,96 50,96 Z"/>
      <path stroke="#425765" stroke-width="3" d="M53.8862668,95.4516225 C55.4139321,95.4516225 56.605672,95.4573787 59.5247909,95.4758413 C63.8098626,95.502943 65.8231219,95.5083721 68.2703023,95.4892368 C86.5821713,95.3460496 97.1981169,93.3961655 102.53905,87.9093386 C106.993391,83.3333229 108.253011,73.6820156 107.091398,59.0896039 C104.497557,26.5052597 81.6936698,1.5 53.8862668,1.5 C25.3548007,1.5 1.68041834,27.2293486 1.68041834,58.9705745 C1.68041834,60.8729417 1.65492045,62.4904671 1.58984444,65.4409076 C1.41628625,73.3097537 1.4702725,76.0730076 2.05276111,79.2312212 C2.76684739,83.1029485 4.27745174,85.7715945 7.02098893,87.7360111 C15.2066026,93.597042 29.8969885,95.4516225 53.8862668,95.4516225 Z"/>
      <path fill="#FFF" stroke="#425765" stroke-width="2" d="M12,71.7310707 C36,107.414515 67,111.379342 96,71.7310707 C86,71.7310707 85,33.0740066 74,29.1091796 C70,26.1355592 60,26.1355592 54,32.0827999 C50,27.126766 40,25.1443525 34,29.1091796 C23,33.0740066 22,71.7310707 12,71.7310707 Z"/>
    </g>
    <g transform="translate(203 25)">
      <path fill="#9468F8" d="M29.9157049,7.03418509 C45.6351154,7.81625346 57.7439825,21.1958117 56.9643705,36.9159487 C56.1792294,52.6304593 42.804184,64.7440795 27.0792442,63.9620111 C11.3653628,63.1799427 -0.749033407,49.8003845 0.036107746,34.0802475 C0.815719736,18.3601105 14.1962943,6.24649032 29.9157049,7.03418509"/>
      <circle cx="32" cy="30" r="28.5" stroke="#425765" stroke-width="3"/>
      <g transform="translate(15 18)">
        <path fill="#FFF" fill-rule="nonzero" d="M11.8780522,4.94012586 C11.8780522,3.69976042 12.7734827,2.69424557 13.8780522,2.69424557 C14.9826217,2.69424557 15.8780522,3.69976042 15.8780522,4.94012586 L15.8780522,28.4483653 C15.8780522,29.6887307 14.9826217,30.6942456 13.8780522,30.6942456 C12.7734827,30.6942456 11.8780522,29.6887307 11.8780522,28.4483653 L11.8780522,4.94012586 Z" transform="rotate(49 13.878 16.694)"/>
        <path fill="#FFF" fill-rule="nonzero" d="M12.4854336,3.92954906 C12.4854336,2.60058609 13.3808641,1.52324875 14.4854336,1.52324875 C15.5900031,1.52324875 16.4854336,2.60058609 16.4854336,3.92954906 L16.4854336,29.1169484 C16.4854336,30.4459114 15.5900031,31.5232487 14.4854336,31.5232487 C13.3808641,31.5232487 12.4854336,30.4459114 12.4854336,29.1169484 L12.4854336,3.92954906 Z" transform="rotate(132 14.485 16.523)"/>
        <use fill="#FFF" xlink:href="#no-patients-a"/>
      </g>
    </g>
  </g>
</svg>
