<?xml version="1.0" encoding="UTF-8"?>
<svg width="250px" height="344px" viewBox="0 0 250 344" version="1.1" xmlns="http://www.w3.org/2000/svg" xmlns:xlink="http://www.w3.org/1999/xlink">
    <!-- Generator: Sketch 47 (45396) - http://www.bohemiancoding.com/sketch -->
    <title>illustration/record match blank avatar</title>
    <desc>Created with Sketch.</desc>
    <defs>
        <path d="M125.5,221 C178.795478,221 222,177.795478 222,124.5 C222,71.2045216 178.795478,8.45117188 125.5,8.45117188 C72.2045216,8.45117188 29,71.2045216 29,124.5 C29,177.795478 72.2045216,221 125.5,221 Z" id="path-1"></path>
        <path d="M154.187808,155.262834 C155.589102,156.41703 157.91379,156.049073 158.748744,154.541529 L168.914062,135.602051 C157.181152,127.32373 149.217773,121.61084 126.419548,121.000057 C103.621322,120.389275 82.7021484,135.247559 82.7021484,135.247559 L93.4575451,155.67841 C94.3161195,157.120478 96.5644526,157.448394 97.9498169,156.333699 L127.067187,132.918613 L154.187808,155.262834 Z" id="path-3"></path>
        <path d="M3.64002305,0.533899743 C5.29469784,0.61622273 6.56931543,2.02459728 6.48725101,3.67934854 C6.40460457,5.33350755 4.99670505,6.60862547 3.34144824,6.52630248 C1.68735546,6.4439795 0.412155857,5.03560494 0.494802294,3.38085368 C0.576866714,1.72610242 1.98534825,0.450984505 3.64002305,0.533899743" id="path-5"></path>
        <path d="M216.320217,8.03391186 C231.921437,8.81010003 243.93926,22.0890601 243.16551,37.6910005 C242.386272,53.2873569 229.111791,65.3098973 213.505083,64.5337091 C197.909351,63.757521 185.886041,50.4785609 186.665279,34.8766204 C187.439029,19.27468 200.718998,7.25213962 216.320217,8.03391186" id="path-7"></path>
    </defs>
    <g id="Page-1" stroke="none" stroke-width="1" fill="none" fill-rule="evenodd">
        <g id="illustration/record-match-blank-avatar">
            <g id="Group" transform="translate(1.000000, 47.000000)">
                <g id="illustration/element/circles" fill="#EFF0F0">
                    <g id="-outer-rings" transform="translate(0.000000, 0.008764)">
                        <g id="Group">
                            <path d="M10.5333818,72.7285132 C11.8912144,70.2967707 14.9636393,69.4269881 17.3949698,70.7850509 C19.8263002,72.1436502 20.6964719,75.2165958 19.3381028,77.6483384 C17.9797337,80.0800809 14.9078453,80.9498635 12.4765148,79.5918008 C10.0451844,78.2332014 9.17501269,75.1602558 10.5333818,72.7285132" id="dot"></path>
                            <path d="M202.533382,171.728513 C203.891214,169.296771 206.963639,168.426988 209.39497,169.785051 C211.8263,171.14365 212.696472,174.216596 211.338103,176.648338 C209.979734,179.080081 206.907845,179.949864 204.476515,178.591801 C202.045184,177.233201 201.175013,174.160256 202.533382,171.728513" id="dot"></path>
                            <path d="M99.4331414,246.879184 C66.818871,240.119455 38.7882916,221.061504 20.5055663,193.215583 C2.22230452,165.369663 -4.12426201,132.069492 2.63485816,99.4491571 C2.99537319,97.7085187 4.69655344,96.5892303 6.44011567,96.950343 C8.18045902,97.3109192 9.29955773,99.0150706 8.93850623,100.756246 C2.52863499,131.691745 8.54741181,163.272741 25.8870041,189.68065 C43.2255234,216.089095 69.8092144,234.16351 100.740008,240.574467 C108.808678,242.246961 116.924558,243.073281 124.978206,243.073281 C147.795802,243.074355 170.133249,236.441793 189.649343,223.623633 C216.052777,206.282175 234.124665,179.693979 240.534536,148.757942 C246.943871,117.821906 240.925631,86.2414467 223.586038,59.8330015 C206.246983,33.4245563 179.663828,15.350678 148.733034,8.93972036 C117.802777,2.52929927 86.2276693,8.54855965 59.8226264,25.8905543 C47.2099655,34.17522 36.4433346,44.6152939 27.8236994,56.9199542 C26.6278839,58.6267885 25.4647938,60.3845971 24.3671543,62.1461618 C23.4267037,63.6550011 21.4406522,64.1159162 19.9326049,63.174233 C18.4234848,62.2330864 17.9637208,60.2477714 18.9047079,58.738932 C20.0635062,56.8807845 21.2899011,55.0258564 22.5511672,53.2256587 C31.640223,40.2497473 42.9916178,29.2419806 56.2888281,20.5082044 C84.1305663,2.22291687 117.426167,-4.12472534 150.039365,2.63500387 C182.653635,9.39419652 210.684214,28.4526837 228.967476,56.2986043 C247.250738,84.1445249 253.597305,117.444159 246.838184,150.064494 C240.079064,182.684292 221.024343,210.719623 193.183141,229.005447 C172.606425,242.520613 149.049021,249.513751 124.991081,249.514287 C116.497519,249.514824 107.943335,248.642895 99.4331414,246.879184 Z" id="outer-ring"></path>
                            <path d="M124.802521,223.802156 C113.506384,223.802156 102.176448,221.850645 91.2274142,217.927234 C39.6571352,199.446634 12.7338519,142.449851 31.2113197,90.8713677 C49.6882511,39.2928846 106.676985,12.365038 158.245655,30.8451011 C209.815397,49.3251641 236.738144,106.322484 218.261749,157.900967 C217.661964,159.575071 215.817006,160.444853 214.145869,159.846039 C212.472049,159.245616 211.601878,157.403029 212.201127,155.729462 C229.480633,107.492747 204.301985,54.1897223 156.074517,36.9067506 C132.711856,28.5340871 107.488144,29.7622995 85.0487661,40.3654912 C62.6099249,50.9686829 45.6421137,69.6762523 37.2719421,93.042873 C19.9924356,141.279052 45.1700107,194.582612 93.3985515,211.865584 C116.761212,220.237711 141.985998,219.008426 164.423766,208.406307 C175.144796,203.340534 184.6625,196.396761 192.714002,187.766543 C193.827736,186.572671 194.925376,185.332118 195.975268,184.078686 C197.117972,182.716868 199.148015,182.538726 200.510139,183.679477 C201.872264,184.821838 202.050912,186.852225 200.909281,188.215117 C199.786427,189.555473 198.612607,190.881878 197.420547,192.159455 C188.811105,201.38795 178.634603,208.812492 167.173766,214.227572 C153.696298,220.596141 139.27838,223.802156 124.802521,223.802156" id="inner-ring"></path>
                        </g>
                    </g>
                </g>
                <mask id="mask-2" fill="white">
                    <use xlink:href="#path-1"></use>
                </mask>
                <g id="Mask"></g>
                <path d="M100.073516,106.99915 C94.1391152,106.847109 82.4790128,105.901812 75.8355151,101.046721 C71.8130895,98.1074648 70.947017,62.4169282 80.8298664,44.5656503 C93.4937709,21.6898131 115.597264,16 125.923374,16 C136.127994,16 158.505743,21.6898131 171.170249,44.5656503 C181.053099,62.4169282 180.187026,98.1074648 176.163999,101.046721 C166.986638,107.753345 149.680224,106.972107 149.680224,106.972107 L149.707289,106.94206" id="Fill-15" fill="#FFFFFF"></path>
                <path d="M168.169862,53.797026 C155.50593,30.7358994 133.128132,25 122.924091,25 C112.597357,25 90.4938157,30.7358994 77.8298835,53.797026 C67.9470125,71.7928954 68.8130869,107.772518 72.8355212,110.734975 C79.4790335,115.629391 91.1391614,116.582951 97.0735753,116.736224 C98.1098573,116.76288 98.9602942,116.764697 99.5912054,116.759851 C105.641697,120.903051 113.090538,124 121.84631,124 C130.661624,124 138.284281,120.866096 144.530843,116.681094 L146.707456,116.678671 L146.680993,116.708962 C146.680993,116.708962 163.986843,117.496527 173.164225,110.734975 C177.18726,107.772518 178.052733,71.7928954 168.169862,53.797026" id="Fill-17" fill="#EFF0F0"></path>
                <path d="M174.194149,134.829772 C160.712904,123.098232 143.014819,116.043326 123.479954,116.043326 C83.7656961,116.043326 51.6420467,141.771188 47.1120798,180.107422 C46.5243497,185.085078 85.4874037,216.612664 123.479954,216.87793 C161.472504,217.143195 200.436052,186.151484 199.847828,181.173828 C198.20416,167.264533 192.928911,156.927955 184.975787,146.389719" id="Fill-1" fill="#FFFFFF"></path>
                <path d="M174.875925,134.244698 C161.362225,122.458842 143.621532,115.371272 124.039638,115.371272 C84.2297707,115.371272 52.0287856,144.665248 47.487913,183.178974 C47.3814796,184.082388 47.423845,184.965611 47.5945552,185.806455" id="Stroke-7" stroke="#425765" stroke-width="4" stroke-linecap="round" stroke-linejoin="round" stroke-dasharray="1,1"></path>
                <path d="M200.591364,183.178974 C198.943738,169.205281 193.65579,156.445192 185.683518,145.858166" id="Stroke-7" stroke="#425765" stroke-width="4" stroke-linecap="round" stroke-linejoin="round" stroke-dasharray="1,1"></path>
                <path d="M198.519074,190.196383 C191.631169,154.454848 164.01323,128.731445 126.527344,128.731445 C90.6916758,128.731445 59.1695392,155.808656 49.7206347,189.506211 C49.4570721,190.446153 76.4947672,224.402344 124.005196,224.916992 C171.515625,225.431641 198.625195,190.74705 198.519074,190.196383 Z" id="Fill-9" fill="#EFF0F0"></path>
                <path d="M167,86.6182312 C151.382954,83.8933149 163.392682,26.8711555 125.593586,45.8668323 C86.8724729,26.4084224 100.42432,86.7296747 83,86.7296747 L83.7110984,86.7296747 C83.7110984,86.7296747 98.2807805,115 124.793299,115 C150.909893,115 166.596241,87.6194063 167,86.6182312 Z" id="Stroke-25" stroke="#425765" stroke-width="2.5" stroke-linecap="round" stroke-linejoin="round" stroke-dasharray="1,1"></path>
                <path d="M100.073516,106.99915 C94.1391152,106.847109 82.4790128,105.901812 75.8355151,101.046721 C71.8130895,98.1074648 70.947017,62.4169282 80.8298664,44.5656503 C93.4937709,21.6898131 115.597264,16 125.923374,16 C136.127994,16 158.505743,21.6898131 171.170249,44.5656503 C181.053099,62.4169282 180.187026,98.1074648 176.163999,101.046721 C166.986638,107.753345 149.680224,106.972107 149.680224,106.972107 L149.707289,106.94206" id="Stroke-27" stroke="#425765" stroke-width="4" stroke-linecap="round" stroke-linejoin="round" stroke-dasharray="1,1"></path>
                <mask id="mask-4" fill="white">
                    <use xlink:href="#path-3"></use>
                </mask>
                <use id="Mask" fill="#48CEC1" xlink:href="#path-3"></use>
                <path d="M82,127.756395 L92.3997785,147.45282 C93.2885177,149.136191 95.6075097,149.524032 97.0337974,148.228502 L127,121" id="Stroke-19" stroke="#425765" stroke-width="2.5" stroke-linecap="round" stroke-linejoin="round" stroke-dasharray="1,1"></path>
                <path d="M168.34082,128.386719 L159.411653,146.368552 C158.562834,148.130242 156.189731,148.554383 154.75577,147.200963 L127,121" id="Stroke-21" stroke="#425765" stroke-width="2.5" stroke-linecap="round" stroke-linejoin="round" stroke-dasharray="1,1"></path>
                <g id="dot" transform="translate(177.000000, 136.000000)">
                    <mask id="mask-6" fill="white">
                        <use xlink:href="#path-5"></use>
                    </mask>
                    <use id="Mask" fill="#425765" fill-rule="evenodd" xlink:href="#path-5"></use>
                </g>
                <mask id="mask-8" fill="white">
                    <use xlink:href="#path-7"></use>
                </mask>
                <use id="Mask" fill="#9468F8" xlink:href="#path-7"></use>
                <circle id="Oval" stroke="#425765" stroke-width="4" stroke-linecap="round" stroke-linejoin="round" stroke-dasharray="0.7,0.7" cx="218.5" cy="31.5" r="28.5"></circle>
                <path d="M204.246551,28 C205.487489,28 206.493833,28.9925216 206.493833,30.2173047 C206.493833,31.4420878 205.487489,32.4353307 204.246551,32.4353307 C203.005613,32.4353307 202,31.4420878 202,30.2173047 C202,28.9925216 203.005613,28 204.246551,28" id="Fill-1" fill="#FFFFFF"></path>
                <polyline id="Stroke-3" stroke="#FFFFFF" stroke-width="4" stroke-linecap="round" stroke-linejoin="round" stroke-dasharray="1,1" points="208 35.5429216 214.074268 42.7776536 232.125605 26"></polyline>
            </g>
        </g>
    </g>
</svg>