<svg xmlns="http://www.w3.org/2000/svg" xmlns:xlink="http://www.w3.org/1999/xlink" width="288" height="344" viewBox="0 0 288 344">
  <defs>
    <path id="unsupported-display-size-a" d="M0.5005,3.2655 C0.5005,4.956875 1.8725,6.328 3.563875,6.328 C5.2535,6.328 6.626375,4.956875 6.626375,3.2655 C6.626375,1.572375 5.2535,0.203 3.563875,0.203 C1.8725,0.203 0.5005,1.572375 0.5005,3.2655 Z"/>
    <path id="unsupported-display-size-c" d="M28.148,1.909 C27.367,2.69 27.367,3.956 28.148,4.737 C28.93,5.517 30.196,5.518 30.977,4.737 C31.758,3.956 31.758,2.69 30.977,1.909 C30.587,1.518 30.075,1.323 29.563,1.323 C29.051,1.323 28.539,1.518 28.148,1.909 Z"/>
  </defs>
  <g fill="none" fill-rule="evenodd">
    <g fill="#EFF0F0" transform="translate(19 75.009)">
      <path d="M10.5333818 73.0194273C11.8912144 70.5779578 14.9636393 69.704696 17.3949698 71.0681911 19.8263002 72.4322248 20.6964719 75.5174622 19.3381028 77.9589317 17.9797337 80.4004013 14.9078453 81.273663 12.4765148 79.910168 10.0451844 78.5461343 9.17501269 75.4608968 10.5333818 73.0194273M202.533382 172.415427C203.891214 169.973958 206.963639 169.100696 209.39497 170.464191 211.8263 171.828225 212.696472 174.913462 211.338103 177.354932 209.979734 179.796401 206.907845 180.669663 204.476515 179.306168 202.045184 177.942134 201.175013 174.856897 202.533382 172.415427"/>
      <path d="M99.4331414,247.866701 C66.818871,241.079932 38.7882916,221.94575 20.5055663,193.988446 C2.22230452,166.031142 -4.12426201,132.59777 2.63485816,99.8469537 C2.99537319,98.0993528 4.69655344,96.9755873 6.44011567,97.3381444 C8.18045902,97.7001628 9.29955773,99.4111309 8.93850623,101.15927 C2.52863499,132.218512 8.54741181,163.925832 25.8870041,190.439372 C43.2255234,216.953451 69.8092144,235.100164 100.740008,241.536765 C108.808678,243.215949 116.924558,244.045575 124.978206,244.045575 C147.795802,244.046652 170.133249,237.38756 189.649343,224.518128 C216.052777,207.107304 234.124665,180.412755 240.534536,149.352974 C246.943871,118.293193 240.925631,86.5864125 223.586038,60.0723335 C206.246983,33.5582545 179.663828,15.4120807 148.733034,8.97547924 C117.802777,2.53941646 86.2276693,8.58275389 59.8226264,25.9941165 C47.2099655,34.3119209 36.4433346,44.7937551 27.8236994,57.147634 C26.6278839,58.8612957 25.4647938,60.6261355 24.3671543,62.3947464 C23.4267037,63.9096212 21.4406522,64.3723798 19.9326049,63.4269299 C18.4234848,62.4820187 17.9637208,60.4887625 18.9047079,58.9738877 C20.0635062,57.1083076 21.2899011,55.2459599 22.5511672,53.4385613 C31.640223,40.4107463 42.9916178,29.3589485 56.2888281,20.5902372 C84.1305663,2.23180854 117.426167,-4.14122424 150.039365,2.64554389 C182.653635,9.4317733 210.684214,28.5664945 228.967476,56.5237987 C247.250738,84.481103 253.597305,117.913936 246.838184,150.664752 C240.079064,183.41503 221.024343,211.562501 193.183141,229.921469 C172.606425,243.490695 149.049021,250.511806 124.991081,250.512344 C116.497519,250.512883 107.943335,249.637466 99.4331414,247.866701 Z"/>
      <path d="M124.802521,224.697365 C113.506384,224.697365 102.176448,222.738048 91.2274142,218.798943 C39.6571352,200.244421 12.7338519,143.01965 31.2113197,91.2348532 C49.6882511,39.4500561 106.676985,12.4144982 158.245655,30.9684815 C209.815397,49.5224647 236.738144,106.747774 218.261749,158.532571 C217.661964,160.213371 215.817006,161.086633 214.145869,160.485423 C212.472049,159.882598 211.601878,158.032641 212.201127,156.35238 C229.480633,107.922718 204.301985,54.4064812 156.074517,37.0543776 C132.711856,28.6482235 107.488144,29.8813487 85.0487661,40.5269532 C62.6099249,51.1725577 45.6421137,69.9549573 37.2719421,93.4150445 C19.9924356,141.844168 45.1700107,195.360943 93.3985515,212.713047 C116.761212,221.118662 141.985998,219.884459 164.423766,209.239932 C175.144796,204.153896 184.6625,197.182348 192.714002,188.517609 C193.827736,187.318962 194.925376,186.073446 195.975268,184.815001 C197.117972,183.447735 199.148015,183.268881 200.510139,184.414195 C201.872264,185.561126 202.050912,187.599634 200.909281,188.967978 C199.786427,190.313695 198.612607,191.645406 197.420547,192.928093 C188.811105,202.193502 178.634603,209.647742 167.173766,215.084483 C153.696298,221.478525 139.27838,224.697365 124.802521,224.697365"/>
    </g>
    <g transform="translate(30 110)">
      <g transform="translate(0 .531)">
        <path fill="#FFF" d="M66.7073,176.3486 L150.7033,176.3486 C156.6243,176.3486 156.9443,167.4306 151.0303,167.1576 C150.8293,167.1476 150.6223,167.1426 150.4083,167.1426 L67.0023,167.1426 C66.7883,167.1426 66.5813,167.1476 66.3803,167.1576 C60.4653,167.4306 60.7863,176.3486 66.7073,176.3486"/>
        <path stroke="#425765" stroke-dasharray="1 1" stroke-linecap="round" stroke-linejoin="round" stroke-width="2.5" d="M66.7073 176.3486L150.7033 176.3486C156.6243 176.3486 156.9443 167.4306 151.0303 167.1576 150.8293 167.1476 150.6223 167.1426 150.4083 167.1426L67.0023 167.1426C66.7883 167.1426 66.5813 167.1476 66.3803 167.1576 60.4653 167.4306 60.7863 176.3486 66.7073 176.3486zM82.7024 167.1133L134.7084 167.1133 127.8654 139.7423 89.5454 139.7423 82.7024 167.1133z"/>
        <path fill="#FFF" d="M134.7083,139.2871 L7.4973,139.2871 C3.3753,139.2871 0.0003,135.8141 0.0003,131.5741 L0.0003,8.1821 C0.0003,3.9411 3.3753,0.4701 7.4973,0.4701 L209.9133,0.4701 C214.0353,0.4701 217.4103,3.9411 217.4103,8.1821 L217.4103,56.0001"/>
        <path fill="#FFF" d="M134.7083,139.2871 L7.4973,139.2871 C3.3753,139.2871 0.0003,135.8141 0.0003,131.5741 L0.0003,8.1821 C0.0003,3.9411 3.3753,0.4701 7.4973,0.4701 L209.9133,0.4701 C214.0353,0.4701 217.4103,3.9411 217.4103,8.1821 L217.4103,34.1691"/>
        <path stroke="#425765" stroke-dasharray="1 1" stroke-linecap="round" stroke-linejoin="round" stroke-width="4" d="M134.7083,139.2871 L7.4973,139.2871 C3.3753,139.2871 0.0003,135.8141 0.0003,131.5741 L0.0003,8.1821 C0.0003,3.9411 3.3753,0.4701 7.4973,0.4701 L209.9133,0.4701 C214.0353,0.4701 217.4103,3.9411 217.4103,8.1821 L217.4103,34.1691"/>
        <g transform="translate(136 53)">
          <path fill="#FFF" d="M81.4104,0.1436 L81.4104,78.7896 C81.4104,82.9116 78.0354,86.2876 73.9134,86.2876 L0.2354,86.2876"/>
          <path stroke="#425765" stroke-dasharray="1 1" stroke-linecap="round" stroke-linejoin="round" stroke-width="4" d="M81.4104,0.1436 L81.4104,78.7896 C81.4104,82.9116 78.0354,86.2876 73.9134,86.2876 L0.2354,86.2876"/>
        </g>
        <path fill="#4D5A60" d="M213.5725,43.7324 C213.5725,45.6644 215.1395,47.2324 217.0725,47.2324 C219.0045,47.2324 220.5725,45.6644 220.5725,43.7324 C220.5725,41.7964 219.0045,40.2324 217.0725,40.2324 C215.1395,40.2324 213.5725,41.7964 213.5725,43.7324"/>
      </g>
      <g transform="translate(213 40.531)">
        <mask id="unsupported-display-size-b" fill="#fff">
          <use xlink:href="#unsupported-display-size-a"/>
        </mask>
        <polygon fill="#4D5A60" points="-14.811 21.64 21.939 21.64 21.939 -15.11 -14.811 -15.11" mask="url(#unsupported-display-size-b)"/>
      </g>
      <g transform="translate(14 15.531)">
        <path fill="#FFF" d="M185.8801,108.8623 L3.5291,108.8623 C2.1291,108.8623 0.9931,107.6943 0.9931,106.2543 L0.9931,3.5033 C0.9931,2.0613 2.1291,0.8933 3.5291,0.8933 L185.8801,0.8933 C187.2811,0.8933 188.4161,2.0613 188.4161,3.5033 L188.4161,106.2543 C188.4161,107.6943 187.2811,108.8623 185.8801,108.8623"/>
        <path fill="#EFF0F0" d="M192.1243,115.2861 L9.7743,115.2861 C8.3733,115.2861 7.2383,114.1181 7.2383,112.6771 L7.2383,9.9261 C7.2383,8.4851 8.3733,7.3171 9.7743,7.3171 L192.1243,7.3171 C193.5253,7.3171 194.6603,8.4851 194.6603,9.9261 L194.6603,112.6771 C194.6603,114.1181 193.5253,115.2861 192.1243,115.2861"/>
        <path stroke="#425765" stroke-dasharray="1 1" stroke-linecap="round" stroke-linejoin="round" stroke-width="2.5" d="M185.8801,108.8623 L3.5291,108.8623 C2.1291,108.8623 0.9931,107.6943 0.9931,106.2543 L0.9931,3.5033 C0.9931,2.0613 2.1291,0.8933 3.5291,0.8933 L185.8801,0.8933 C187.2811,0.8933 188.4161,2.0613 188.4161,3.5033 L188.4161,106.2543 C188.4161,107.6943 187.2811,108.8623 185.8801,108.8623 Z"/>
        <path fill="#FFF" d="M11.5081 23.7979L23.2821 12.0239M13.7161 42.1953L37.2641 18.6463"/>
      </g>
      <g transform="translate(82 140)">
        <polygon fill="#FFF" points=".702 27.644 52.708 27.644 45.865 .273 7.545 .273"/>
        <path stroke="#425765" stroke-dasharray="1 1" stroke-linecap="round" stroke-linejoin="round" stroke-width="2.5" d="M0.7024,27.6443 L52.7084,27.6443 L45.8654,0.2733 L7.5454,0.2733 L0.7024,27.6443 Z"/>
      </g>
      <g transform="translate(25 27)">
        <path stroke="#425765" stroke-dasharray="1 1" stroke-linecap="round" stroke-linejoin="round" stroke-width="2.5" d="M.5081 12.3289L12.2821.5549M1.6116 21.5281L21.4806 1.6591"/>
        <use fill="#4D5A60" xlink:href="#unsupported-display-size-c"/>
        <path stroke="#425765" stroke-dasharray="1 1" stroke-linecap="round" stroke-linejoin="round" stroke-width="2.5" d="M2.7161,30.7263 L26.2641,7.1773"/>
      </g>
      <g transform="translate(88 50)">
        <path fill="#FFF" d="M21.5354,38.4372 C32.1454,38.4372 40.7464,29.8362 40.7464,19.2262 C40.7464,8.6172 32.1454,0.0152 21.5354,0.0152 C10.9264,0.0152 2.3244,8.6172 2.3244,19.2262 C2.3244,29.8362 10.9264,38.4372 21.5354,38.4372"/>
        <path fill="#9468F8" d="M20.0667,3.4089 C30.5827,3.9319 38.6827,12.8829 38.1627,23.3989 C37.6367,33.9119 28.6887,42.0159 18.1697,41.4939 C7.6567,40.9709 -0.4483,32.0189 0.0767,21.5029 C0.5987,10.9859 9.5497,2.8819 20.0667,3.4089"/>
        <path stroke="#425765" stroke-dasharray="1 1" stroke-linecap="round" stroke-linejoin="round" stroke-width="2.5" d="M21.5354,38.4372 C32.1454,38.4372 40.7464,29.8362 40.7464,19.2262 C40.7464,8.6172 32.1454,0.0152 21.5354,0.0152 C10.9264,0.0152 2.3244,8.6172 2.3244,19.2262 C2.3244,29.8362 10.9264,38.4372 21.5354,38.4372 Z"/>
        <path fill="#FFF" d="M11.928,16.8669 C12.764,16.8669 13.443,17.5369 13.443,18.3619 C13.443,19.1869 12.764,19.8569 11.928,19.8569 C11.092,19.8569 10.413,19.1869 10.413,18.3619 C10.413,17.5369 11.092,16.8669 11.928,16.8669"/>
        <path stroke="#FFF" stroke-dasharray="1 1" stroke-linecap="round" stroke-linejoin="round" stroke-width="2.5" d="M14.4583,21.9519 L18.5533,26.8279 L30.7203,15.5189"/>
      </g>
    </g>
    <g transform="translate(182 192)">
      <path fill="#FFF" d="M76.1155,90.9656 C76.1155,95.6766 72.2615,99.5306 67.5505,99.5306 L9.3065,99.5306 C4.5955,99.5306 0.7415,95.6766 0.7415,90.9656 L0.7415,8.7406 C0.7415,4.0296 4.5955,0.1756 9.3065,0.1756 L67.5505,0.1756 C72.2615,0.1756 76.1155,4.0296 76.1155,8.7406 L76.1155,90.9656 Z"/>
      <path stroke="#425765" stroke-dasharray="1 1" stroke-linecap="round" stroke-linejoin="round" stroke-width="4" d="M76.1155,90.9656 C76.1155,95.6766 72.2615,99.5306 67.5505,99.5306 L9.3065,99.5306 C4.5955,99.5306 0.7415,95.6766 0.7415,90.9656 L0.7415,8.7406 C0.7415,4.0296 4.5955,0.1756 9.3065,0.1756 L67.5505,0.1756 C72.2615,0.1756 76.1155,4.0296 76.1155,8.7406 L76.1155,90.9656 Z"/>
      <path fill="#425765" d="M38.429,4.946 C37.28,4.946 36.347,5.879 36.347,7.027 C36.347,8.176 37.28,9.109 38.429,9.109 C39.577,9.109 40.51,8.176 40.51,7.027 C40.51,5.879 39.577,4.946 38.429,4.946"/>
      <g transform="translate(31 88.531)">
        <path fill="#FFF" d="M0.636,0.626 L14.221,0.626"/>
        <path stroke="#425765" stroke-dasharray="1 1" stroke-linecap="round" stroke-linejoin="round" stroke-width="2.5" d="M0.636,0.626 L14.221,0.626"/>
      </g>
      <g transform="translate(11 13)">
        <path fill="#EFF0F0" d="M57.4485,70.1374 L5.7335,70.1374 C4.8775,70.1374 4.1825,69.4434 4.1825,68.5864 L4.1825,6.5934 C4.1825,5.7374 4.8775,5.0424 5.7335,5.0424 L57.4485,5.0424 C58.3045,5.0424 58.9995,5.7374 58.9995,6.5934 L58.9995,68.5864 C58.9995,69.4434 58.3045,70.1374 57.4485,70.1374"/>
        <path stroke="#425765" stroke-dasharray="1 1" stroke-linecap="round" stroke-linejoin="round" stroke-width="2.5" d="M53.2854,65.9744 L1.5714,65.9744 C0.7144,65.9744 0.0194,65.2804 0.0194,64.4234 L0.0194,2.4304 C0.0194,1.5744 0.7144,0.8794 1.5714,0.8794 L53.2854,0.8794 C54.1424,0.8794 54.8374,1.5744 54.8374,2.4304 L54.8374,64.4234 C54.8374,65.2804 54.1424,65.9744 53.2854,65.9744 Z"/>
        <g transform="translate(6 8)">
          <g transform="translate(0 .531)">
            <path fill="#FFF" d="M0.5266,11.9463 L12.0046,0.4693"/>
            <path stroke="#425765" stroke-dasharray="1 1" stroke-linecap="round" stroke-linejoin="round" stroke-width="2.5" d="M0.5266,11.9463 L12.0046,0.4693"/>
          </g>
          <g transform="translate(0 .531)">
            <path fill="#FFF" d="M0.7532,3.3945 L3.5522,0.5955"/>
            <path stroke="#425765" stroke-dasharray="1 1" stroke-linecap="round" stroke-linejoin="round" stroke-width="2.5" d="M0.7532,3.3945 L3.5522,0.5955"/>
          </g>
          <path stroke="#425765" stroke-dasharray="1 1" stroke-linecap="round" stroke-linejoin="round" stroke-width="2.5" d="M0.8547,20.283 L15.4107,5.727"/>
          <path fill="#4D5A60" d="M19.5149,4.3191 C18.8309,5.0031 17.7239,5.0031 17.0399,4.3191 C16.3579,3.6351 16.3569,2.5281 17.0399,1.8441 C17.7239,1.1611 18.8319,1.1611 19.5149,1.8441 C20.1989,2.5281 20.1989,3.6351 19.5149,4.3191"/>
        </g>
      </g>
      <g transform="translate(26 37)">
        <path fill="#9468F8" d="M13.5237,2.9841 C20.2747,3.3201 25.4747,9.0661 25.1407,15.8181 C24.8027,22.5661 19.0587,27.7691 12.3047,27.4331 C5.5567,27.0971 0.3537,21.3511 0.6907,14.6001 C1.0257,7.8481 6.7727,2.6461 13.5237,2.9841"/>
        <path stroke="#425765" stroke-dasharray="1 1" stroke-linecap="round" stroke-linejoin="round" stroke-width="2.5" d="M14.467,25.4714 C21.278,25.4714 26.8,19.9504 26.8,13.1384 C26.8,6.3274 21.278,0.8064 14.467,0.8064 C7.655,0.8064 2.134,6.3274 2.134,13.1384 C2.134,19.9504 7.655,25.4714 14.467,25.4714 Z"/>
        <path stroke="#FFF" stroke-dasharray="1 1" stroke-linecap="round" stroke-linejoin="round" stroke-width="2.5" d="M9.6282,14.6091 L12.5522,18.0191 L20.3622,10.7581"/>
      </g>
    </g>
  </g>
</svg>
